<?xml version="1.0" encoding="utf-8"?>
<!-- Generator: Adobe Illustrator 16.0.0, SVG Export Plug-In . SVG Version: 6.00 Build 0)  -->
<!DOCTYPE svg PUBLIC "-//W3C//DTD SVG 1.1//EN" "http://www.w3.org/Graphics/SVG/1.1/DTD/svg11.dtd">
<svg version="1.1" id="Layer_1" xmlns="http://www.w3.org/2000/svg" xmlns:xlink="http://www.w3.org/1999/xlink" x="0px" y="0px"
	 width="359.875px" height="392px" viewBox="0 0 359.875 392" enable-background="new 0 0 359.875 392" xml:space="preserve">
<polygon opacity="0.3" fill="#D4D4D4" points="134.403,323 61.566,196.5 134.403,70 280.078,70 352.915,196.5 280.078,323 "/>
<g>
	<g>
		<g>
			<polygon fill="#B2DDF3" points="224.875,38.721 279.875,7.018 334.875,38.721 334.875,102.125 279.875,133.828 224.875,102.125 
							"/>
		</g>
		<g>
			<g>
				<path fill="#B2DDF3" d="M267.083,54.233l-4.5,10.969h-0.906l-4.5-10.969h0.906l4.047,10l4.047-10H267.083z"/>
				<path fill="#B2DDF3" d="M269.102,54.937c0,0.812-1.234,0.812-1.234,0S269.102,54.124,269.102,54.937z M268.086,57.421v7.75
					h0.766v-7.75H268.086z"/>
				<path fill="#B2DDF3" d="M271.759,57.452l0.031,1.375c0.484-1.047,1.578-1.453,2.562-1.453c0.578-0.016,1.141,0.141,1.656,0.453
					l-0.344,0.625c-0.406-0.25-0.859-0.359-1.312-0.359c-1.438,0.016-2.547,1.172-2.547,2.578v4.5h-0.766v-7.719H271.759z"/>
				<path fill="#B2DDF3" d="M279.417,55.124v2.328h2.625v0.641h-2.625v4.703c0,1.047,0.219,1.781,1.422,1.781
					c0.375,0,0.797-0.125,1.188-0.312l0.266,0.625c-0.484,0.234-0.969,0.391-1.453,0.391c-1.641,0-2.172-0.969-2.172-2.484v-4.703
					h-1.641v-0.641h1.641v-2.25L279.417,55.124z"/>
				<path fill="#B2DDF3" d="M290.028,65.171V63.78c-0.594,1.062-1.672,1.5-2.75,1.516c-2.062,0-3.484-1.266-3.484-3.406v-4.453
					h0.766v4.438c0,1.75,1.078,2.688,2.75,2.672c1.594-0.016,2.703-1.219,2.703-2.812v-4.297h0.766v7.734H290.028z"/>
				<path fill="#B2DDF3" d="M300.219,57.452c0,2.578,0,5.141,0,7.719h-0.766V63.53c-0.75,1.203-1.906,1.766-3.156,1.766
					c-2.156,0-3.922-1.625-3.922-3.984s1.766-3.953,3.922-3.953c1.25,0,2.516,0.578,3.156,1.781v-1.688H300.219z M293.141,61.312
					c0,1.938,1.406,3.234,3.156,3.234c4.297,0,4.297-6.453,0-6.453C294.547,58.093,293.141,59.374,293.141,61.312z"/>
				<path fill="#B2DDF3" d="M303.065,54.233v10.938H302.3V54.233H303.065z"/>
				<path fill="#B2DDF3" d="M265.81,83.927H264.7l-3.781-4.141h-2.984v4.141h-0.844V72.989c1.609,0,3.203,0,4.812,0
					c2.375,0,3.578,1.703,3.594,3.406c0.016,1.781-1.156,3.344-3.547,3.344L265.81,83.927z M257.935,78.989h3.875
					c1.906,0,2.75-1.078,2.766-2.609c0.016-1.281-0.859-2.609-2.672-2.609h-3.969V78.989z"/>
				<path fill="#B2DDF3" d="M266.641,80.067c0-2.312,1.75-3.984,3.922-3.984s4.109,1.328,3.812,4.344h-6.953
					c0.156,1.812,1.547,2.859,3.141,2.859c1.016,0,2.203-0.406,2.781-1.172l0.547,0.438c-0.75,0.984-2.094,1.484-3.328,1.484
					C268.391,84.036,266.641,82.521,266.641,80.067z M273.688,79.755c-0.016-1.906-1.266-2.969-3.125-2.969
					c-1.594,0-2.969,1.078-3.141,2.969H273.688z"/>
				<path fill="#B2DDF3" d="M283.784,76.208c0,2.578,0,5.141,0,7.719h-0.766v-1.641c-0.75,1.203-1.906,1.766-3.156,1.766
					c-2.156,0-3.922-1.625-3.922-3.984s1.766-3.953,3.922-3.953c1.25,0,2.516,0.578,3.156,1.781v-1.688H283.784z M276.706,80.067
					c0,1.938,1.406,3.234,3.156,3.234c4.297,0,4.297-6.453,0-6.453C278.112,76.849,276.706,78.13,276.706,80.067z"/>
				<path fill="#B2DDF3" d="M286.631,72.989v10.938h-0.766V72.989H286.631z"/>
				<path fill="#B2DDF3" d="M289.787,73.692c0,0.812-1.234,0.812-1.234,0S289.787,72.88,289.787,73.692z M288.771,76.177v7.75h0.766
					v-7.75H288.771z"/>
				<path fill="#B2DDF3" d="M293.491,73.88v2.328h2.625v0.641h-2.625v4.703c0,1.047,0.219,1.781,1.422,1.781
					c0.375,0,0.797-0.125,1.188-0.312l0.266,0.625c-0.484,0.234-0.969,0.391-1.453,0.391c-1.641,0-2.172-0.969-2.172-2.484v-4.703
					h-1.641v-0.641h1.641v-2.25L293.491,73.88z"/>
				<path fill="#B2DDF3" d="M304.649,76.208l-4.703,10.938h-0.812l1.422-3.312l-3.094-7.625h0.828l1.797,4.562l0.906,2.234
					l0.891-2.25l1.938-4.547H304.649z"/>
			</g>
			<g>
				<path fill="#B2DDF3" d="M267.083,54.233l-4.5,10.969h-0.906l-4.5-10.969h0.906l4.047,10l4.047-10H267.083z"/>
				<path fill="#B2DDF3" d="M269.102,54.937c0,0.812-1.234,0.812-1.234,0S269.102,54.124,269.102,54.937z M268.086,57.421v7.75
					h0.766v-7.75H268.086z"/>
				<path fill="#B2DDF3" d="M271.759,57.452l0.031,1.375c0.484-1.047,1.578-1.453,2.562-1.453c0.578-0.016,1.141,0.141,1.656,0.453
					l-0.344,0.625c-0.406-0.25-0.859-0.359-1.312-0.359c-1.438,0.016-2.547,1.172-2.547,2.578v4.5h-0.766v-7.719H271.759z"/>
				<path fill="#B2DDF3" d="M279.417,55.124v2.328h2.625v0.641h-2.625v4.703c0,1.047,0.219,1.781,1.422,1.781
					c0.375,0,0.797-0.125,1.188-0.312l0.266,0.625c-0.484,0.234-0.969,0.391-1.453,0.391c-1.641,0-2.172-0.969-2.172-2.484v-4.703
					h-1.641v-0.641h1.641v-2.25L279.417,55.124z"/>
				<path fill="#B2DDF3" d="M290.028,65.171V63.78c-0.594,1.062-1.672,1.5-2.75,1.516c-2.062,0-3.484-1.266-3.484-3.406v-4.453
					h0.766v4.438c0,1.75,1.078,2.688,2.75,2.672c1.594-0.016,2.703-1.219,2.703-2.812v-4.297h0.766v7.734H290.028z"/>
				<path fill="#B2DDF3" d="M300.219,57.452c0,2.578,0,5.141,0,7.719h-0.766V63.53c-0.75,1.203-1.906,1.766-3.156,1.766
					c-2.156,0-3.922-1.625-3.922-3.984s1.766-3.953,3.922-3.953c1.25,0,2.516,0.578,3.156,1.781v-1.688H300.219z M293.141,61.312
					c0,1.938,1.406,3.234,3.156,3.234c4.297,0,4.297-6.453,0-6.453C294.547,58.093,293.141,59.374,293.141,61.312z"/>
				<path fill="#B2DDF3" d="M303.065,54.233v10.938H302.3V54.233H303.065z"/>
				<path fill="#B2DDF3" d="M265.81,83.927H264.7l-3.781-4.141h-2.984v4.141h-0.844V72.989c1.609,0,3.203,0,4.812,0
					c2.375,0,3.578,1.703,3.594,3.406c0.016,1.781-1.156,3.344-3.547,3.344L265.81,83.927z M257.935,78.989h3.875
					c1.906,0,2.75-1.078,2.766-2.609c0.016-1.281-0.859-2.609-2.672-2.609h-3.969V78.989z"/>
				<path fill="#B2DDF3" d="M266.641,80.067c0-2.312,1.75-3.984,3.922-3.984s4.109,1.328,3.812,4.344h-6.953
					c0.156,1.812,1.547,2.859,3.141,2.859c1.016,0,2.203-0.406,2.781-1.172l0.547,0.438c-0.75,0.984-2.094,1.484-3.328,1.484
					C268.391,84.036,266.641,82.521,266.641,80.067z M273.688,79.755c-0.016-1.906-1.266-2.969-3.125-2.969
					c-1.594,0-2.969,1.078-3.141,2.969H273.688z"/>
				<path fill="#B2DDF3" d="M283.784,76.208c0,2.578,0,5.141,0,7.719h-0.766v-1.641c-0.75,1.203-1.906,1.766-3.156,1.766
					c-2.156,0-3.922-1.625-3.922-3.984s1.766-3.953,3.922-3.953c1.25,0,2.516,0.578,3.156,1.781v-1.688H283.784z M276.706,80.067
					c0,1.938,1.406,3.234,3.156,3.234c4.297,0,4.297-6.453,0-6.453C278.112,76.849,276.706,78.13,276.706,80.067z"/>
				<path fill="#B2DDF3" d="M286.631,72.989v10.938h-0.766V72.989H286.631z"/>
				<path fill="#B2DDF3" d="M289.787,73.692c0,0.812-1.234,0.812-1.234,0S289.787,72.88,289.787,73.692z M288.771,76.177v7.75h0.766
					v-7.75H288.771z"/>
				<path fill="#B2DDF3" d="M293.491,73.88v2.328h2.625v0.641h-2.625v4.703c0,1.047,0.219,1.781,1.422,1.781
					c0.375,0,0.797-0.125,1.188-0.312l0.266,0.625c-0.484,0.234-0.969,0.391-1.453,0.391c-1.641,0-2.172-0.969-2.172-2.484v-4.703
					h-1.641v-0.641h1.641v-2.25L293.491,73.88z"/>
				<path fill="#B2DDF3" d="M304.649,76.208l-4.703,10.938h-0.812l1.422-3.312l-3.094-7.625h0.828l1.797,4.562l0.906,2.234
					l0.891-2.25l1.938-4.547H304.649z"/>
			</g>
			<g>
				<path fill="#B2DDF3" d="M267.083,54.233l-4.5,10.969h-0.906l-4.5-10.969h0.906l4.047,10l4.047-10H267.083z"/>
				<path fill="#B2DDF3" d="M269.102,54.937c0,0.812-1.234,0.812-1.234,0S269.102,54.124,269.102,54.937z M268.086,57.421v7.75
					h0.766v-7.75H268.086z"/>
				<path fill="#B2DDF3" d="M271.759,57.452l0.031,1.375c0.484-1.047,1.578-1.453,2.562-1.453c0.578-0.016,1.141,0.141,1.656,0.453
					l-0.344,0.625c-0.406-0.25-0.859-0.359-1.312-0.359c-1.438,0.016-2.547,1.172-2.547,2.578v4.5h-0.766v-7.719H271.759z"/>
				<path fill="#B2DDF3" d="M279.417,55.124v2.328h2.625v0.641h-2.625v4.703c0,1.047,0.219,1.781,1.422,1.781
					c0.375,0,0.797-0.125,1.188-0.312l0.266,0.625c-0.484,0.234-0.969,0.391-1.453,0.391c-1.641,0-2.172-0.969-2.172-2.484v-4.703
					h-1.641v-0.641h1.641v-2.25L279.417,55.124z"/>
				<path fill="#B2DDF3" d="M290.028,65.171V63.78c-0.594,1.062-1.672,1.5-2.75,1.516c-2.062,0-3.484-1.266-3.484-3.406v-4.453
					h0.766v4.438c0,1.75,1.078,2.688,2.75,2.672c1.594-0.016,2.703-1.219,2.703-2.812v-4.297h0.766v7.734H290.028z"/>
				<path fill="#B2DDF3" d="M300.219,57.452c0,2.578,0,5.141,0,7.719h-0.766V63.53c-0.75,1.203-1.906,1.766-3.156,1.766
					c-2.156,0-3.922-1.625-3.922-3.984s1.766-3.953,3.922-3.953c1.25,0,2.516,0.578,3.156,1.781v-1.688H300.219z M293.141,61.312
					c0,1.938,1.406,3.234,3.156,3.234c4.297,0,4.297-6.453,0-6.453C294.547,58.093,293.141,59.374,293.141,61.312z"/>
				<path fill="#B2DDF3" d="M303.065,54.233v10.938H302.3V54.233H303.065z"/>
				<path fill="#B2DDF3" d="M265.81,83.927H264.7l-3.781-4.141h-2.984v4.141h-0.844V72.989c1.609,0,3.203,0,4.812,0
					c2.375,0,3.578,1.703,3.594,3.406c0.016,1.781-1.156,3.344-3.547,3.344L265.81,83.927z M257.935,78.989h3.875
					c1.906,0,2.75-1.078,2.766-2.609c0.016-1.281-0.859-2.609-2.672-2.609h-3.969V78.989z"/>
				<path fill="#B2DDF3" d="M266.641,80.067c0-2.312,1.75-3.984,3.922-3.984s4.109,1.328,3.812,4.344h-6.953
					c0.156,1.812,1.547,2.859,3.141,2.859c1.016,0,2.203-0.406,2.781-1.172l0.547,0.438c-0.75,0.984-2.094,1.484-3.328,1.484
					C268.391,84.036,266.641,82.521,266.641,80.067z M273.688,79.755c-0.016-1.906-1.266-2.969-3.125-2.969
					c-1.594,0-2.969,1.078-3.141,2.969H273.688z"/>
				<path fill="#B2DDF3" d="M283.784,76.208c0,2.578,0,5.141,0,7.719h-0.766v-1.641c-0.75,1.203-1.906,1.766-3.156,1.766
					c-2.156,0-3.922-1.625-3.922-3.984s1.766-3.953,3.922-3.953c1.25,0,2.516,0.578,3.156,1.781v-1.688H283.784z M276.706,80.067
					c0,1.938,1.406,3.234,3.156,3.234c4.297,0,4.297-6.453,0-6.453C278.112,76.849,276.706,78.13,276.706,80.067z"/>
				<path fill="#B2DDF3" d="M286.631,72.989v10.938h-0.766V72.989H286.631z"/>
				<path fill="#B2DDF3" d="M289.787,73.692c0,0.812-1.234,0.812-1.234,0S289.787,72.88,289.787,73.692z M288.771,76.177v7.75h0.766
					v-7.75H288.771z"/>
				<path fill="#B2DDF3" d="M293.491,73.88v2.328h2.625v0.641h-2.625v4.703c0,1.047,0.219,1.781,1.422,1.781
					c0.375,0,0.797-0.125,1.188-0.312l0.266,0.625c-0.484,0.234-0.969,0.391-1.453,0.391c-1.641,0-2.172-0.969-2.172-2.484v-4.703
					h-1.641v-0.641h1.641v-2.25L293.491,73.88z"/>
				<path fill="#B2DDF3" d="M304.649,76.208l-4.703,10.938h-0.812l1.422-3.312l-3.094-7.625h0.828l1.797,4.562l0.906,2.234
					l0.891-2.25l1.938-4.547H304.649z"/>
			</g>
		</g>
	</g>
	<g>
		<g>
			<polygon fill="#FFFFFF" points="224.875,38.721 279.875,7.018 334.875,38.721 334.875,102.125 279.875,133.828 224.875,102.125 
							"/>
			<path fill="#0090D7" d="M279.875,140.754l-61-35.162V35.254l61-35.162l61,35.162v70.338L279.875,140.754z M230.875,98.658
				l49,28.244l49-28.244V42.188l-49-28.244l-49,28.244V98.658z"/>
		</g>
		<g>
			<g>
				<path fill="#34495E" d="M267.083,54.233l-4.5,10.969h-0.906l-4.5-10.969h0.906l4.047,10l4.047-10H267.083z"/>
				<path fill="#34495E" d="M269.102,54.937c0,0.812-1.234,0.812-1.234,0S269.102,54.124,269.102,54.937z M268.086,57.421v7.75
					h0.766v-7.75H268.086z"/>
				<path fill="#34495E" d="M271.759,57.452l0.031,1.375c0.484-1.047,1.578-1.453,2.562-1.453c0.578-0.016,1.141,0.141,1.656,0.453
					l-0.344,0.625c-0.406-0.25-0.859-0.359-1.312-0.359c-1.438,0.016-2.547,1.172-2.547,2.578v4.5h-0.766v-7.719H271.759z"/>
				<path fill="#34495E" d="M279.417,55.124v2.328h2.625v0.641h-2.625v4.703c0,1.047,0.219,1.781,1.422,1.781
					c0.375,0,0.797-0.125,1.188-0.312l0.266,0.625c-0.484,0.234-0.969,0.391-1.453,0.391c-1.641,0-2.172-0.969-2.172-2.484v-4.703
					h-1.641v-0.641h1.641v-2.25L279.417,55.124z"/>
				<path fill="#34495E" d="M290.028,65.171V63.78c-0.594,1.062-1.672,1.5-2.75,1.516c-2.062,0-3.484-1.266-3.484-3.406v-4.453
					h0.766v4.438c0,1.75,1.078,2.688,2.75,2.672c1.594-0.016,2.703-1.219,2.703-2.812v-4.297h0.766v7.734H290.028z"/>
				<path fill="#34495E" d="M300.219,57.452c0,2.578,0,5.141,0,7.719h-0.766V63.53c-0.75,1.203-1.906,1.766-3.156,1.766
					c-2.156,0-3.922-1.625-3.922-3.984s1.766-3.953,3.922-3.953c1.25,0,2.516,0.578,3.156,1.781v-1.688H300.219z M293.141,61.312
					c0,1.938,1.406,3.234,3.156,3.234c4.297,0,4.297-6.453,0-6.453C294.547,58.093,293.141,59.374,293.141,61.312z"/>
				<path fill="#34495E" d="M303.065,54.233v10.938H302.3V54.233H303.065z"/>
				<path fill="#34495E" d="M265.81,83.927H264.7l-3.781-4.141h-2.984v4.141h-0.844V72.989c1.609,0,3.203,0,4.812,0
					c2.375,0,3.578,1.703,3.594,3.406c0.016,1.781-1.156,3.344-3.547,3.344L265.81,83.927z M257.935,78.989h3.875
					c1.906,0,2.75-1.078,2.766-2.609c0.016-1.281-0.859-2.609-2.672-2.609h-3.969V78.989z"/>
				<path fill="#34495E" d="M266.641,80.067c0-2.312,1.75-3.984,3.922-3.984s4.109,1.328,3.812,4.344h-6.953
					c0.156,1.812,1.547,2.859,3.141,2.859c1.016,0,2.203-0.406,2.781-1.172l0.547,0.438c-0.75,0.984-2.094,1.484-3.328,1.484
					C268.391,84.036,266.641,82.521,266.641,80.067z M273.688,79.755c-0.016-1.906-1.266-2.969-3.125-2.969
					c-1.594,0-2.969,1.078-3.141,2.969H273.688z"/>
				<path fill="#34495E" d="M283.784,76.208c0,2.578,0,5.141,0,7.719h-0.766v-1.641c-0.75,1.203-1.906,1.766-3.156,1.766
					c-2.156,0-3.922-1.625-3.922-3.984s1.766-3.953,3.922-3.953c1.25,0,2.516,0.578,3.156,1.781v-1.688H283.784z M276.706,80.067
					c0,1.938,1.406,3.234,3.156,3.234c4.297,0,4.297-6.453,0-6.453C278.112,76.849,276.706,78.13,276.706,80.067z"/>
				<path fill="#34495E" d="M286.631,72.989v10.938h-0.766V72.989H286.631z"/>
				<path fill="#34495E" d="M289.787,73.692c0,0.812-1.234,0.812-1.234,0S289.787,72.88,289.787,73.692z M288.771,76.177v7.75h0.766
					v-7.75H288.771z"/>
				<path fill="#34495E" d="M293.491,73.88v2.328h2.625v0.641h-2.625v4.703c0,1.047,0.219,1.781,1.422,1.781
					c0.375,0,0.797-0.125,1.188-0.312l0.266,0.625c-0.484,0.234-0.969,0.391-1.453,0.391c-1.641,0-2.172-0.969-2.172-2.484v-4.703
					h-1.641v-0.641h1.641v-2.25L293.491,73.88z"/>
				<path fill="#34495E" d="M304.649,76.208l-4.703,10.938h-0.812l1.422-3.312l-3.094-7.625h0.828l1.797,4.562l0.906,2.234
					l0.891-2.25l1.938-4.547H304.649z"/>
			</g>
		</g>
	</g>
</g>
<g>
	<g>
		<g>
			<polygon fill="#B2DDF3" points="227.875,292.883 280.375,262.344 332.875,292.883 332.875,353.963 280.375,384.503 
				227.875,353.963 			"/>
		</g>
		<g>
			<g>
				<path fill="#B2DDF3" d="M270.335,308.996l-4.036,6.175h-0.271l-4.066-6.175v9.367h-0.813v-10.542c0.392,0,0.572,0,0.964,0
					l4.036,6.145l3.991-6.145h0.994v10.542h-0.798V308.996z"/>
				<path fill="#B2DDF3" d="M274.293,308.499c0,0.783-1.19,0.783-1.19,0S274.293,307.716,274.293,308.499z M273.313,310.894v7.47
					h0.738v-7.47H273.313z"/>
				<path fill="#B2DDF3" d="M279.096,313.966l2.214-3.042h0.889v0.029l-2.666,3.555l2.876,3.825v0.03h-0.873l-2.439-3.328
					l-2.44,3.328h-0.873v-0.03l2.876-3.825l-2.665-3.555v-0.029h0.889L279.096,313.966z"/>
				<path fill="#B2DDF3" d="M283.37,314.644c0-2.229,1.688-3.841,3.78-3.841c2.094,0,3.961,1.28,3.675,4.188h-6.702
					c0.151,1.746,1.491,2.756,3.027,2.756c0.979,0,2.124-0.392,2.681-1.13l0.527,0.422c-0.723,0.948-2.018,1.431-3.208,1.431
					C285.058,318.469,283.37,317.008,283.37,314.644z M290.163,314.342c-0.016-1.837-1.221-2.861-3.013-2.861
					c-1.536,0-2.861,1.039-3.027,2.861H290.163z"/>
				<path fill="#B2DDF3" d="M299.874,307.821v10.542h-0.723v-1.642c-0.617,1.13-1.838,1.762-3.103,1.762
					c-2.078,0-3.72-1.37-3.72-3.84c0-2.455,1.656-3.841,3.734-3.841c1.28,0,2.485,0.542,3.088,1.747v-4.729H299.874z
					 M293.052,314.644c0,2.063,1.37,3.117,3.042,3.117c1.747,0,3.043-1.28,3.043-3.133s-1.326-3.117-3.043-3.117
					C294.422,311.511,293.052,312.55,293.052,314.644z"/>
				<path fill="#B2DDF3" d="M266.353,336.431h-1.069l-3.645-3.991h-2.877v3.991h-0.813v-10.542c1.552,0,3.088,0,4.639,0
					c2.289,0,3.449,1.642,3.464,3.283c0.016,1.717-1.114,3.223-3.418,3.223L266.353,336.431z M258.762,331.672h3.735
					c1.837,0,2.65-1.039,2.665-2.516c0.016-1.234-0.828-2.515-2.575-2.515h-3.825V331.672z"/>
				<path fill="#B2DDF3" d="M267.147,332.711c0-2.229,1.688-3.841,3.78-3.841c2.094,0,3.961,1.28,3.675,4.187H267.9
					c0.151,1.747,1.491,2.757,3.027,2.757c0.979,0,2.124-0.392,2.681-1.13l0.527,0.422c-0.723,0.948-2.018,1.431-3.208,1.431
					C268.835,336.536,267.147,335.075,267.147,332.711z M273.94,332.409c-0.016-1.837-1.221-2.861-3.013-2.861
					c-1.536,0-2.861,1.039-3.027,2.861H273.94z"/>
				<path fill="#B2DDF3" d="M283.667,328.991c0,2.484,0,4.954,0,7.439h-0.738v-1.581c-0.723,1.159-1.838,1.701-3.042,1.701
					c-2.079,0-3.78-1.566-3.78-3.84c0-2.274,1.701-3.811,3.78-3.811c1.204,0,2.425,0.558,3.042,1.717v-1.626H283.667z
					 M276.844,332.711c0,1.867,1.355,3.117,3.043,3.117c4.142,0,4.142-6.22,0-6.22C278.199,329.608,276.844,330.843,276.844,332.711
					z"/>
				<path fill="#B2DDF3" d="M286.405,325.889v10.542h-0.738v-10.542H286.405z"/>
				<path fill="#B2DDF3" d="M289.447,326.566c0,0.783-1.19,0.783-1.19,0S289.447,325.783,289.447,326.566z M288.468,328.961v7.47
					h0.738v-7.47H288.468z"/>
				<path fill="#B2DDF3" d="M293.015,326.747v2.244h2.53v0.617h-2.53v4.533c0,1.009,0.211,1.717,1.37,1.717
					c0.361,0,0.769-0.12,1.145-0.301l0.256,0.602c-0.467,0.227-0.934,0.377-1.4,0.377c-1.581,0-2.093-0.934-2.093-2.395v-4.533
					h-1.582v-0.617h1.582v-2.169L293.015,326.747z"/>
				<path fill="#B2DDF3" d="M303.766,328.991l-4.533,10.542h-0.783l1.371-3.193l-2.982-7.349h0.799l1.731,4.397l0.874,2.153
					l0.858-2.169l1.867-4.382H303.766z"/>
			</g>
			<g>
				<path fill="#B2DDF3" d="M270.335,308.996l-4.036,6.175h-0.271l-4.066-6.175v9.367h-0.813v-10.542c0.392,0,0.572,0,0.964,0
					l4.036,6.145l3.991-6.145h0.994v10.542h-0.798V308.996z"/>
				<path fill="#B2DDF3" d="M274.293,308.499c0,0.783-1.19,0.783-1.19,0S274.293,307.716,274.293,308.499z M273.313,310.894v7.47
					h0.738v-7.47H273.313z"/>
				<path fill="#B2DDF3" d="M279.096,313.966l2.214-3.042h0.889v0.029l-2.666,3.555l2.876,3.825v0.03h-0.873l-2.439-3.328
					l-2.44,3.328h-0.873v-0.03l2.876-3.825l-2.665-3.555v-0.029h0.889L279.096,313.966z"/>
				<path fill="#B2DDF3" d="M283.37,314.644c0-2.229,1.688-3.841,3.78-3.841c2.094,0,3.961,1.28,3.675,4.188h-6.702
					c0.151,1.746,1.491,2.756,3.027,2.756c0.979,0,2.124-0.392,2.681-1.13l0.527,0.422c-0.723,0.948-2.018,1.431-3.208,1.431
					C285.058,318.469,283.37,317.008,283.37,314.644z M290.163,314.342c-0.016-1.837-1.221-2.861-3.013-2.861
					c-1.536,0-2.861,1.039-3.027,2.861H290.163z"/>
				<path fill="#B2DDF3" d="M299.874,307.821v10.542h-0.723v-1.642c-0.617,1.13-1.838,1.762-3.103,1.762
					c-2.078,0-3.72-1.37-3.72-3.84c0-2.455,1.656-3.841,3.734-3.841c1.28,0,2.485,0.542,3.088,1.747v-4.729H299.874z
					 M293.052,314.644c0,2.063,1.37,3.117,3.042,3.117c1.747,0,3.043-1.28,3.043-3.133s-1.326-3.117-3.043-3.117
					C294.422,311.511,293.052,312.55,293.052,314.644z"/>
				<path fill="#B2DDF3" d="M266.353,336.431h-1.069l-3.645-3.991h-2.877v3.991h-0.813v-10.542c1.552,0,3.088,0,4.639,0
					c2.289,0,3.449,1.642,3.464,3.283c0.016,1.717-1.114,3.223-3.418,3.223L266.353,336.431z M258.762,331.672h3.735
					c1.837,0,2.65-1.039,2.665-2.516c0.016-1.234-0.828-2.515-2.575-2.515h-3.825V331.672z"/>
				<path fill="#B2DDF3" d="M267.147,332.711c0-2.229,1.688-3.841,3.78-3.841c2.094,0,3.961,1.28,3.675,4.187H267.9
					c0.151,1.747,1.491,2.757,3.027,2.757c0.979,0,2.124-0.392,2.681-1.13l0.527,0.422c-0.723,0.948-2.018,1.431-3.208,1.431
					C268.835,336.536,267.147,335.075,267.147,332.711z M273.94,332.409c-0.016-1.837-1.221-2.861-3.013-2.861
					c-1.536,0-2.861,1.039-3.027,2.861H273.94z"/>
				<path fill="#B2DDF3" d="M283.667,328.991c0,2.484,0,4.954,0,7.439h-0.738v-1.581c-0.723,1.159-1.838,1.701-3.042,1.701
					c-2.079,0-3.78-1.566-3.78-3.84c0-2.274,1.701-3.811,3.78-3.811c1.204,0,2.425,0.558,3.042,1.717v-1.626H283.667z
					 M276.844,332.711c0,1.867,1.355,3.117,3.043,3.117c4.142,0,4.142-6.22,0-6.22C278.199,329.608,276.844,330.843,276.844,332.711
					z"/>
				<path fill="#B2DDF3" d="M286.405,325.889v10.542h-0.738v-10.542H286.405z"/>
				<path fill="#B2DDF3" d="M289.447,326.566c0,0.783-1.19,0.783-1.19,0S289.447,325.783,289.447,326.566z M288.468,328.961v7.47
					h0.738v-7.47H288.468z"/>
				<path fill="#B2DDF3" d="M293.015,326.747v2.244h2.53v0.617h-2.53v4.533c0,1.009,0.211,1.717,1.37,1.717
					c0.361,0,0.769-0.12,1.145-0.301l0.256,0.602c-0.467,0.227-0.934,0.377-1.4,0.377c-1.581,0-2.093-0.934-2.093-2.395v-4.533
					h-1.582v-0.617h1.582v-2.169L293.015,326.747z"/>
				<path fill="#B2DDF3" d="M303.766,328.991l-4.533,10.542h-0.783l1.371-3.193l-2.982-7.349h0.799l1.731,4.397l0.874,2.153
					l0.858-2.169l1.867-4.382H303.766z"/>
			</g>
			<g>
				<path fill="#B2DDF3" d="M270.335,308.996l-4.036,6.175h-0.271l-4.066-6.175v9.367h-0.813v-10.542c0.392,0,0.572,0,0.964,0
					l4.036,6.145l3.991-6.145h0.994v10.542h-0.798V308.996z"/>
				<path fill="#B2DDF3" d="M274.293,308.499c0,0.783-1.19,0.783-1.19,0S274.293,307.716,274.293,308.499z M273.313,310.894v7.47
					h0.738v-7.47H273.313z"/>
				<path fill="#B2DDF3" d="M279.096,313.966l2.214-3.042h0.889v0.029l-2.666,3.555l2.876,3.825v0.03h-0.873l-2.439-3.328
					l-2.44,3.328h-0.873v-0.03l2.876-3.825l-2.665-3.555v-0.029h0.889L279.096,313.966z"/>
				<path fill="#B2DDF3" d="M283.37,314.644c0-2.229,1.688-3.841,3.78-3.841c2.094,0,3.961,1.28,3.675,4.188h-6.702
					c0.151,1.746,1.491,2.756,3.027,2.756c0.979,0,2.124-0.392,2.681-1.13l0.527,0.422c-0.723,0.948-2.018,1.431-3.208,1.431
					C285.058,318.469,283.37,317.008,283.37,314.644z M290.163,314.342c-0.016-1.837-1.221-2.861-3.013-2.861
					c-1.536,0-2.861,1.039-3.027,2.861H290.163z"/>
				<path fill="#B2DDF3" d="M299.874,307.821v10.542h-0.723v-1.642c-0.617,1.13-1.838,1.762-3.103,1.762
					c-2.078,0-3.72-1.37-3.72-3.84c0-2.455,1.656-3.841,3.734-3.841c1.28,0,2.485,0.542,3.088,1.747v-4.729H299.874z
					 M293.052,314.644c0,2.063,1.37,3.117,3.042,3.117c1.747,0,3.043-1.28,3.043-3.133s-1.326-3.117-3.043-3.117
					C294.422,311.511,293.052,312.55,293.052,314.644z"/>
				<path fill="#B2DDF3" d="M266.353,336.431h-1.069l-3.645-3.991h-2.877v3.991h-0.813v-10.542c1.552,0,3.088,0,4.639,0
					c2.289,0,3.449,1.642,3.464,3.283c0.016,1.717-1.114,3.223-3.418,3.223L266.353,336.431z M258.762,331.672h3.735
					c1.837,0,2.65-1.039,2.665-2.516c0.016-1.234-0.828-2.515-2.575-2.515h-3.825V331.672z"/>
				<path fill="#B2DDF3" d="M267.147,332.711c0-2.229,1.688-3.841,3.78-3.841c2.094,0,3.961,1.28,3.675,4.187H267.9
					c0.151,1.747,1.491,2.757,3.027,2.757c0.979,0,2.124-0.392,2.681-1.13l0.527,0.422c-0.723,0.948-2.018,1.431-3.208,1.431
					C268.835,336.536,267.147,335.075,267.147,332.711z M273.94,332.409c-0.016-1.837-1.221-2.861-3.013-2.861
					c-1.536,0-2.861,1.039-3.027,2.861H273.94z"/>
				<path fill="#B2DDF3" d="M283.667,328.991c0,2.484,0,4.954,0,7.439h-0.738v-1.581c-0.723,1.159-1.838,1.701-3.042,1.701
					c-2.079,0-3.78-1.566-3.78-3.84c0-2.274,1.701-3.811,3.78-3.811c1.204,0,2.425,0.558,3.042,1.717v-1.626H283.667z
					 M276.844,332.711c0,1.867,1.355,3.117,3.043,3.117c4.142,0,4.142-6.22,0-6.22C278.199,329.608,276.844,330.843,276.844,332.711
					z"/>
				<path fill="#B2DDF3" d="M286.405,325.889v10.542h-0.738v-10.542H286.405z"/>
				<path fill="#B2DDF3" d="M289.447,326.566c0,0.783-1.19,0.783-1.19,0S289.447,325.783,289.447,326.566z M288.468,328.961v7.47
					h0.738v-7.47H288.468z"/>
				<path fill="#B2DDF3" d="M293.015,326.747v2.244h2.53v0.617h-2.53v4.533c0,1.009,0.211,1.717,1.37,1.717
					c0.361,0,0.769-0.12,1.145-0.301l0.256,0.602c-0.467,0.227-0.934,0.377-1.4,0.377c-1.581,0-2.093-0.934-2.093-2.395v-4.533
					h-1.582v-0.617h1.582v-2.169L293.015,326.747z"/>
				<path fill="#B2DDF3" d="M303.766,328.991l-4.533,10.542h-0.783l1.371-3.193l-2.982-7.349h0.799l1.731,4.397l0.874,2.153
					l0.858-2.169l1.867-4.382H303.766z"/>
			</g>
		</g>
	</g>
	<g>
		<g>
			<polygon fill="#FFFFFF" points="227.875,292.883 280.375,262.344 332.875,292.883 332.875,353.963 280.375,384.503 
				227.875,353.963 			"/>
			<path fill="#0090D7" d="M280.375,391.444l-58.5-34.03v-67.982l58.5-34.029l58.5,34.029v67.982L280.375,391.444z M233.875,350.512
				l46.5,27.05l46.5-27.05v-54.178l-46.5-27.049l-46.5,27.049V350.512z"/>
		</g>
		<g>
			<g>
				<path fill="#34495E" d="M270.335,308.996l-4.036,6.175h-0.271l-4.066-6.175v9.367h-0.813v-10.542c0.392,0,0.572,0,0.964,0
					l4.036,6.145l3.991-6.145h0.994v10.542h-0.798V308.996z"/>
				<path fill="#34495E" d="M274.293,308.499c0,0.783-1.19,0.783-1.19,0S274.293,307.716,274.293,308.499z M273.313,310.894v7.47
					h0.738v-7.47H273.313z"/>
				<path fill="#34495E" d="M279.096,313.966l2.214-3.042h0.889v0.029l-2.666,3.555l2.876,3.825v0.03h-0.873l-2.439-3.328
					l-2.44,3.328h-0.873v-0.03l2.876-3.825l-2.665-3.555v-0.029h0.889L279.096,313.966z"/>
				<path fill="#34495E" d="M283.37,314.644c0-2.229,1.688-3.841,3.78-3.841c2.094,0,3.961,1.28,3.675,4.188h-6.702
					c0.151,1.746,1.491,2.756,3.027,2.756c0.979,0,2.124-0.392,2.681-1.13l0.527,0.422c-0.723,0.948-2.018,1.431-3.208,1.431
					C285.058,318.469,283.37,317.008,283.37,314.644z M290.163,314.342c-0.016-1.837-1.221-2.861-3.013-2.861
					c-1.536,0-2.861,1.039-3.027,2.861H290.163z"/>
				<path fill="#34495E" d="M299.874,307.821v10.542h-0.723v-1.642c-0.617,1.13-1.838,1.762-3.103,1.762
					c-2.078,0-3.72-1.37-3.72-3.84c0-2.455,1.656-3.841,3.734-3.841c1.28,0,2.485,0.542,3.088,1.747v-4.729H299.874z
					 M293.052,314.644c0,2.063,1.37,3.117,3.042,3.117c1.747,0,3.043-1.28,3.043-3.133s-1.326-3.117-3.043-3.117
					C294.422,311.511,293.052,312.55,293.052,314.644z"/>
				<path fill="#34495E" d="M266.353,336.431h-1.069l-3.645-3.991h-2.877v3.991h-0.813v-10.542c1.552,0,3.088,0,4.639,0
					c2.289,0,3.449,1.642,3.464,3.283c0.016,1.717-1.114,3.223-3.418,3.223L266.353,336.431z M258.762,331.672h3.735
					c1.837,0,2.65-1.039,2.665-2.516c0.016-1.234-0.828-2.515-2.575-2.515h-3.825V331.672z"/>
				<path fill="#34495E" d="M267.147,332.711c0-2.229,1.688-3.841,3.78-3.841c2.094,0,3.961,1.28,3.675,4.187H267.9
					c0.151,1.747,1.491,2.757,3.027,2.757c0.979,0,2.124-0.392,2.681-1.13l0.527,0.422c-0.723,0.948-2.018,1.431-3.208,1.431
					C268.835,336.536,267.147,335.075,267.147,332.711z M273.94,332.409c-0.016-1.837-1.221-2.861-3.013-2.861
					c-1.536,0-2.861,1.039-3.027,2.861H273.94z"/>
				<path fill="#34495E" d="M283.667,328.991c0,2.484,0,4.954,0,7.439h-0.738v-1.581c-0.723,1.159-1.838,1.701-3.042,1.701
					c-2.079,0-3.78-1.566-3.78-3.84c0-2.274,1.701-3.811,3.78-3.811c1.204,0,2.425,0.558,3.042,1.717v-1.626H283.667z
					 M276.844,332.711c0,1.867,1.355,3.117,3.043,3.117c4.142,0,4.142-6.22,0-6.22C278.199,329.608,276.844,330.843,276.844,332.711
					z"/>
				<path fill="#34495E" d="M286.405,325.889v10.542h-0.738v-10.542H286.405z"/>
				<path fill="#34495E" d="M289.447,326.566c0,0.783-1.19,0.783-1.19,0S289.447,325.783,289.447,326.566z M288.468,328.961v7.47
					h0.738v-7.47H288.468z"/>
				<path fill="#34495E" d="M293.015,326.747v2.244h2.53v0.617h-2.53v4.533c0,1.009,0.211,1.717,1.37,1.717
					c0.361,0,0.769-0.12,1.145-0.301l0.256,0.602c-0.467,0.227-0.934,0.377-1.4,0.377c-1.581,0-2.093-0.934-2.093-2.395v-4.533
					h-1.582v-0.617h1.582v-2.169L293.015,326.747z"/>
				<path fill="#34495E" d="M303.766,328.991l-4.533,10.542h-0.783l1.371-3.193l-2.982-7.349h0.799l1.731,4.397l0.874,2.153
					l0.858-2.169l1.867-4.382H303.766z"/>
			</g>
		</g>
	</g>
</g>
<g>
	<g>
		<g>
			<polygon fill="#B2DDF3" points="7.875,166.297 61.875,135.171 115.875,166.297 115.875,228.549 61.875,259.676 7.875,228.549 			
				"/>
		</g>
		<g>
			<g>
				<path fill="#B2DDF3" d="M30.297,192.268l-1.182-2.641h-6.417l-1.167,2.641h-0.89l4.82-10.745h0.906l4.82,10.745H30.297z
					 M28.792,188.859l-2.886-6.539l-2.886,6.539H28.792z"/>
				<path fill="#B2DDF3" d="M38.061,192.268v-1.366c-0.583,1.044-1.643,1.474-2.702,1.489c-2.026,0-3.423-1.243-3.423-3.347v-4.375
					h0.752v4.359c0,1.72,1.059,2.641,2.702,2.625c1.566-0.015,2.656-1.197,2.656-2.763v-4.222h0.752v7.599H38.061z"/>
				<path fill="#B2DDF3" d="M46.869,184.378l0.491,0.43l-0.737,0.859c0.537,0.583,0.936,1.351,0.936,2.579
					c0,1.32-0.783,2.655-2.042,3.224c1.335,0.476,2.072,1.412,2.072,2.717c0,2.041-1.596,3.023-3.607,3.023
					c-2.011,0-3.592-1.104-3.592-3.023h0.752c0,1.55,1.32,2.287,2.84,2.287c1.52,0,2.87-0.676,2.87-2.287
					c0-1.627-1.458-2.272-2.87-2.272c-2.195,0-3.562-1.642-3.562-3.668c0-2.364,1.597-3.7,3.562-3.7
					c0.767,0,1.565,0.276,2.149,0.691L46.869,184.378z M41.174,188.246c0,1.565,1.075,2.916,2.81,2.916
					c1.565,0,2.839-1.351,2.839-2.916c0-1.919-1.274-2.947-2.839-2.947C42.433,185.299,41.174,186.266,41.174,188.246z"/>
				<path fill="#B2DDF3" d="M60.344,192.268v-4.544c0-1.458-0.982-2.486-2.425-2.486s-2.44,1.074-2.44,2.532v4.498h-0.752v-4.498
					c0-1.458-0.998-2.517-2.44-2.517s-2.425,1.059-2.425,2.517v4.498h-0.752v-7.583h0.706l0.016,1.259
					c0.522-0.998,1.489-1.412,2.471-1.412c1.151,0,2.364,0.521,2.809,1.872c0.46-1.243,1.643-1.872,2.809-1.872
					c1.857,0,3.178,1.305,3.178,3.192v4.544H60.344z"/>
				<path fill="#B2DDF3" d="M62.78,188.476c0-2.271,1.719-3.914,3.853-3.914c2.133,0,4.037,1.305,3.745,4.268h-6.831
					c0.153,1.78,1.52,2.81,3.085,2.81c0.998,0,2.164-0.399,2.732-1.151l0.538,0.43c-0.737,0.967-2.057,1.458-3.27,1.458
					C64.5,192.375,62.78,190.886,62.78,188.476z M69.703,188.169c-0.015-1.873-1.243-2.916-3.07-2.916
					c-1.566,0-2.917,1.059-3.085,2.916H69.703z"/>
				<path fill="#B2DDF3" d="M73.062,184.685v1.351c0.583-1.044,1.643-1.474,2.702-1.489c2.026,0,3.423,1.244,3.423,3.347v4.375
					h-0.752v-4.359c0-1.72-1.059-2.641-2.702-2.625c-1.565,0.016-2.656,1.197-2.656,2.763v4.222h-0.752v-7.583H73.062z"/>
				<path fill="#B2DDF3" d="M82.562,182.397v2.287h2.579v0.629h-2.579v4.621c0,1.028,0.215,1.75,1.397,1.75
					c0.369,0,0.783-0.123,1.167-0.308l0.261,0.614c-0.476,0.23-0.952,0.384-1.428,0.384c-1.612,0-2.133-0.952-2.133-2.44v-4.621
					h-1.612v-0.629h1.612v-2.211L82.562,182.397z"/>
				<path fill="#B2DDF3" d="M86.443,188.476c0-2.271,1.719-3.914,3.853-3.914c2.133,0,4.037,1.305,3.745,4.268h-6.831
					c0.153,1.78,1.52,2.81,3.085,2.81c0.998,0,2.164-0.399,2.732-1.151l0.538,0.43c-0.737,0.967-2.057,1.458-3.27,1.458
					C88.163,192.375,86.443,190.886,86.443,188.476z M93.366,188.169c-0.015-1.873-1.243-2.916-3.07-2.916
					c-1.566,0-2.917,1.059-3.085,2.916H93.366z"/>
				<path fill="#B2DDF3" d="M103.264,181.522v10.745h-0.737v-1.673c-0.629,1.151-1.873,1.796-3.162,1.796
					c-2.118,0-3.792-1.397-3.792-3.915c0-2.502,1.688-3.914,3.807-3.914c1.305,0,2.533,0.553,3.146,1.781v-4.82H103.264z
					 M96.311,188.476c0,2.104,1.397,3.178,3.101,3.178c1.78,0,3.101-1.305,3.101-3.192c0-1.889-1.351-3.178-3.101-3.178
					C97.708,185.283,96.311,186.343,96.311,188.476z"/>
				<path fill="#B2DDF3" d="M48.083,210.683h-1.09l-3.715-4.067h-2.932v4.067h-0.829v-10.745c1.582,0,3.147,0,4.728,0
					c2.333,0,3.515,1.673,3.531,3.347c0.015,1.749-1.136,3.284-3.485,3.284L48.083,210.683z M40.346,205.832h3.807
					c1.873,0,2.702-1.06,2.717-2.563c0.015-1.259-0.844-2.563-2.625-2.563h-3.899V205.832z"/>
				<path fill="#B2DDF3" d="M48.893,206.891c0-2.271,1.719-3.914,3.853-3.914c2.133,0,4.037,1.305,3.745,4.268h-6.831
					c0.153,1.78,1.52,2.81,3.085,2.81c0.998,0,2.164-0.399,2.732-1.151l0.537,0.43c-0.737,0.967-2.057,1.458-3.27,1.458
					C50.612,210.79,48.893,209.301,48.893,206.891z M55.816,206.584c-0.015-1.873-1.243-2.916-3.07-2.916
					c-1.566,0-2.917,1.059-3.085,2.916H55.816z"/>
				<path fill="#B2DDF3" d="M65.729,203.1c0,2.533,0,5.05,0,7.583h-0.752v-1.611c-0.737,1.182-1.873,1.734-3.101,1.734
					c-2.118,0-3.853-1.597-3.853-3.915c0-2.317,1.735-3.883,3.853-3.883c1.228,0,2.471,0.567,3.101,1.75V203.1H65.729z
					 M58.776,206.891c0,1.904,1.381,3.178,3.101,3.178c4.221,0,4.221-6.34,0-6.34C60.157,203.729,58.776,204.987,58.776,206.891z"/>
				<path fill="#B2DDF3" d="M68.521,199.938v10.745h-0.752v-10.745H68.521z"/>
				<path fill="#B2DDF3" d="M71.62,200.628c0,0.799-1.213,0.799-1.213,0C70.407,199.83,71.62,199.83,71.62,200.628z M70.622,203.068
					v7.614h0.752v-7.614H70.622z"/>
				<path fill="#B2DDF3" d="M75.257,200.812v2.287h2.579v0.629h-2.579v4.621c0,1.028,0.215,1.75,1.397,1.75
					c0.369,0,0.783-0.123,1.167-0.308l0.261,0.614c-0.476,0.23-0.952,0.384-1.428,0.384c-1.612,0-2.133-0.952-2.133-2.44v-4.621
					h-1.612V203.1h1.612v-2.211L75.257,200.812z"/>
				<path fill="#B2DDF3" d="M86.215,203.1l-4.621,10.745h-0.798l1.397-3.254l-3.04-7.491h0.814l1.765,4.482l0.89,2.195l0.875-2.211
					l1.903-4.467H86.215z"/>
			</g>
			<g>
				<path fill="#B2DDF3" d="M30.297,192.268l-1.182-2.641h-6.417l-1.167,2.641h-0.89l4.82-10.745h0.906l4.82,10.745H30.297z
					 M28.792,188.859l-2.886-6.539l-2.886,6.539H28.792z"/>
				<path fill="#B2DDF3" d="M38.061,192.268v-1.366c-0.583,1.044-1.643,1.474-2.702,1.489c-2.026,0-3.423-1.243-3.423-3.347v-4.375
					h0.752v4.359c0,1.72,1.059,2.641,2.702,2.625c1.566-0.015,2.656-1.197,2.656-2.763v-4.222h0.752v7.599H38.061z"/>
				<path fill="#B2DDF3" d="M46.869,184.378l0.491,0.43l-0.737,0.859c0.537,0.583,0.936,1.351,0.936,2.579
					c0,1.32-0.783,2.655-2.042,3.224c1.335,0.476,2.072,1.412,2.072,2.717c0,2.041-1.596,3.023-3.607,3.023
					c-2.011,0-3.592-1.104-3.592-3.023h0.752c0,1.55,1.32,2.287,2.84,2.287c1.52,0,2.87-0.676,2.87-2.287
					c0-1.627-1.458-2.272-2.87-2.272c-2.195,0-3.562-1.642-3.562-3.668c0-2.364,1.597-3.7,3.562-3.7
					c0.767,0,1.565,0.276,2.149,0.691L46.869,184.378z M41.174,188.246c0,1.565,1.075,2.916,2.81,2.916
					c1.565,0,2.839-1.351,2.839-2.916c0-1.919-1.274-2.947-2.839-2.947C42.433,185.299,41.174,186.266,41.174,188.246z"/>
				<path fill="#B2DDF3" d="M60.344,192.268v-4.544c0-1.458-0.982-2.486-2.425-2.486s-2.44,1.074-2.44,2.532v4.498h-0.752v-4.498
					c0-1.458-0.998-2.517-2.44-2.517s-2.425,1.059-2.425,2.517v4.498h-0.752v-7.583h0.706l0.016,1.259
					c0.522-0.998,1.489-1.412,2.471-1.412c1.151,0,2.364,0.521,2.809,1.872c0.46-1.243,1.643-1.872,2.809-1.872
					c1.857,0,3.178,1.305,3.178,3.192v4.544H60.344z"/>
				<path fill="#B2DDF3" d="M62.78,188.476c0-2.271,1.719-3.914,3.853-3.914c2.133,0,4.037,1.305,3.745,4.268h-6.831
					c0.153,1.78,1.52,2.81,3.085,2.81c0.998,0,2.164-0.399,2.732-1.151l0.538,0.43c-0.737,0.967-2.057,1.458-3.27,1.458
					C64.5,192.375,62.78,190.886,62.78,188.476z M69.703,188.169c-0.015-1.873-1.243-2.916-3.07-2.916
					c-1.566,0-2.917,1.059-3.085,2.916H69.703z"/>
				<path fill="#B2DDF3" d="M73.062,184.685v1.351c0.583-1.044,1.643-1.474,2.702-1.489c2.026,0,3.423,1.244,3.423,3.347v4.375
					h-0.752v-4.359c0-1.72-1.059-2.641-2.702-2.625c-1.565,0.016-2.656,1.197-2.656,2.763v4.222h-0.752v-7.583H73.062z"/>
				<path fill="#B2DDF3" d="M82.562,182.397v2.287h2.579v0.629h-2.579v4.621c0,1.028,0.215,1.75,1.397,1.75
					c0.369,0,0.783-0.123,1.167-0.308l0.261,0.614c-0.476,0.23-0.952,0.384-1.428,0.384c-1.612,0-2.133-0.952-2.133-2.44v-4.621
					h-1.612v-0.629h1.612v-2.211L82.562,182.397z"/>
				<path fill="#B2DDF3" d="M86.443,188.476c0-2.271,1.719-3.914,3.853-3.914c2.133,0,4.037,1.305,3.745,4.268h-6.831
					c0.153,1.78,1.52,2.81,3.085,2.81c0.998,0,2.164-0.399,2.732-1.151l0.538,0.43c-0.737,0.967-2.057,1.458-3.27,1.458
					C88.163,192.375,86.443,190.886,86.443,188.476z M93.366,188.169c-0.015-1.873-1.243-2.916-3.07-2.916
					c-1.566,0-2.917,1.059-3.085,2.916H93.366z"/>
				<path fill="#B2DDF3" d="M103.264,181.522v10.745h-0.737v-1.673c-0.629,1.151-1.873,1.796-3.162,1.796
					c-2.118,0-3.792-1.397-3.792-3.915c0-2.502,1.688-3.914,3.807-3.914c1.305,0,2.533,0.553,3.146,1.781v-4.82H103.264z
					 M96.311,188.476c0,2.104,1.397,3.178,3.101,3.178c1.78,0,3.101-1.305,3.101-3.192c0-1.889-1.351-3.178-3.101-3.178
					C97.708,185.283,96.311,186.343,96.311,188.476z"/>
				<path fill="#B2DDF3" d="M48.083,210.683h-1.09l-3.715-4.067h-2.932v4.067h-0.829v-10.745c1.582,0,3.147,0,4.728,0
					c2.333,0,3.515,1.673,3.531,3.347c0.015,1.749-1.136,3.284-3.485,3.284L48.083,210.683z M40.346,205.832h3.807
					c1.873,0,2.702-1.06,2.717-2.563c0.015-1.259-0.844-2.563-2.625-2.563h-3.899V205.832z"/>
				<path fill="#B2DDF3" d="M48.893,206.891c0-2.271,1.719-3.914,3.853-3.914c2.133,0,4.037,1.305,3.745,4.268h-6.831
					c0.153,1.78,1.52,2.81,3.085,2.81c0.998,0,2.164-0.399,2.732-1.151l0.537,0.43c-0.737,0.967-2.057,1.458-3.27,1.458
					C50.612,210.79,48.893,209.301,48.893,206.891z M55.816,206.584c-0.015-1.873-1.243-2.916-3.07-2.916
					c-1.566,0-2.917,1.059-3.085,2.916H55.816z"/>
				<path fill="#B2DDF3" d="M65.729,203.1c0,2.533,0,5.05,0,7.583h-0.752v-1.611c-0.737,1.182-1.873,1.734-3.101,1.734
					c-2.118,0-3.853-1.597-3.853-3.915c0-2.317,1.735-3.883,3.853-3.883c1.228,0,2.471,0.567,3.101,1.75V203.1H65.729z
					 M58.776,206.891c0,1.904,1.381,3.178,3.101,3.178c4.221,0,4.221-6.34,0-6.34C60.157,203.729,58.776,204.987,58.776,206.891z"/>
				<path fill="#B2DDF3" d="M68.521,199.938v10.745h-0.752v-10.745H68.521z"/>
				<path fill="#B2DDF3" d="M71.62,200.628c0,0.799-1.213,0.799-1.213,0C70.407,199.83,71.62,199.83,71.62,200.628z M70.622,203.068
					v7.614h0.752v-7.614H70.622z"/>
				<path fill="#B2DDF3" d="M75.257,200.812v2.287h2.579v0.629h-2.579v4.621c0,1.028,0.215,1.75,1.397,1.75
					c0.369,0,0.783-0.123,1.167-0.308l0.261,0.614c-0.476,0.23-0.952,0.384-1.428,0.384c-1.612,0-2.133-0.952-2.133-2.44v-4.621
					h-1.612V203.1h1.612v-2.211L75.257,200.812z"/>
				<path fill="#B2DDF3" d="M86.215,203.1l-4.621,10.745h-0.798l1.397-3.254l-3.04-7.491h0.814l1.765,4.482l0.89,2.195l0.875-2.211
					l1.903-4.467H86.215z"/>
			</g>
			<g>
				<path fill="#B2DDF3" d="M30.297,192.268l-1.182-2.641h-6.417l-1.167,2.641h-0.89l4.82-10.745h0.906l4.82,10.745H30.297z
					 M28.792,188.859l-2.886-6.539l-2.886,6.539H28.792z"/>
				<path fill="#B2DDF3" d="M38.061,192.268v-1.366c-0.583,1.044-1.643,1.474-2.702,1.489c-2.026,0-3.423-1.243-3.423-3.347v-4.375
					h0.752v4.359c0,1.72,1.059,2.641,2.702,2.625c1.566-0.015,2.656-1.197,2.656-2.763v-4.222h0.752v7.599H38.061z"/>
				<path fill="#B2DDF3" d="M46.869,184.378l0.491,0.43l-0.737,0.859c0.537,0.583,0.936,1.351,0.936,2.579
					c0,1.32-0.783,2.655-2.042,3.224c1.335,0.476,2.072,1.412,2.072,2.717c0,2.041-1.596,3.023-3.607,3.023
					c-2.011,0-3.592-1.104-3.592-3.023h0.752c0,1.55,1.32,2.287,2.84,2.287c1.52,0,2.87-0.676,2.87-2.287
					c0-1.627-1.458-2.272-2.87-2.272c-2.195,0-3.562-1.642-3.562-3.668c0-2.364,1.597-3.7,3.562-3.7
					c0.767,0,1.565,0.276,2.149,0.691L46.869,184.378z M41.174,188.246c0,1.565,1.075,2.916,2.81,2.916
					c1.565,0,2.839-1.351,2.839-2.916c0-1.919-1.274-2.947-2.839-2.947C42.433,185.299,41.174,186.266,41.174,188.246z"/>
				<path fill="#B2DDF3" d="M60.344,192.268v-4.544c0-1.458-0.982-2.486-2.425-2.486s-2.44,1.074-2.44,2.532v4.498h-0.752v-4.498
					c0-1.458-0.998-2.517-2.44-2.517s-2.425,1.059-2.425,2.517v4.498h-0.752v-7.583h0.706l0.016,1.259
					c0.522-0.998,1.489-1.412,2.471-1.412c1.151,0,2.364,0.521,2.809,1.872c0.46-1.243,1.643-1.872,2.809-1.872
					c1.857,0,3.178,1.305,3.178,3.192v4.544H60.344z"/>
				<path fill="#B2DDF3" d="M62.78,188.476c0-2.271,1.719-3.914,3.853-3.914c2.133,0,4.037,1.305,3.745,4.268h-6.831
					c0.153,1.78,1.52,2.81,3.085,2.81c0.998,0,2.164-0.399,2.732-1.151l0.538,0.43c-0.737,0.967-2.057,1.458-3.27,1.458
					C64.5,192.375,62.78,190.886,62.78,188.476z M69.703,188.169c-0.015-1.873-1.243-2.916-3.07-2.916
					c-1.566,0-2.917,1.059-3.085,2.916H69.703z"/>
				<path fill="#B2DDF3" d="M73.062,184.685v1.351c0.583-1.044,1.643-1.474,2.702-1.489c2.026,0,3.423,1.244,3.423,3.347v4.375
					h-0.752v-4.359c0-1.72-1.059-2.641-2.702-2.625c-1.565,0.016-2.656,1.197-2.656,2.763v4.222h-0.752v-7.583H73.062z"/>
				<path fill="#B2DDF3" d="M82.562,182.397v2.287h2.579v0.629h-2.579v4.621c0,1.028,0.215,1.75,1.397,1.75
					c0.369,0,0.783-0.123,1.167-0.308l0.261,0.614c-0.476,0.23-0.952,0.384-1.428,0.384c-1.612,0-2.133-0.952-2.133-2.44v-4.621
					h-1.612v-0.629h1.612v-2.211L82.562,182.397z"/>
				<path fill="#B2DDF3" d="M86.443,188.476c0-2.271,1.719-3.914,3.853-3.914c2.133,0,4.037,1.305,3.745,4.268h-6.831
					c0.153,1.78,1.52,2.81,3.085,2.81c0.998,0,2.164-0.399,2.732-1.151l0.538,0.43c-0.737,0.967-2.057,1.458-3.27,1.458
					C88.163,192.375,86.443,190.886,86.443,188.476z M93.366,188.169c-0.015-1.873-1.243-2.916-3.07-2.916
					c-1.566,0-2.917,1.059-3.085,2.916H93.366z"/>
				<path fill="#B2DDF3" d="M103.264,181.522v10.745h-0.737v-1.673c-0.629,1.151-1.873,1.796-3.162,1.796
					c-2.118,0-3.792-1.397-3.792-3.915c0-2.502,1.688-3.914,3.807-3.914c1.305,0,2.533,0.553,3.146,1.781v-4.82H103.264z
					 M96.311,188.476c0,2.104,1.397,3.178,3.101,3.178c1.78,0,3.101-1.305,3.101-3.192c0-1.889-1.351-3.178-3.101-3.178
					C97.708,185.283,96.311,186.343,96.311,188.476z"/>
				<path fill="#B2DDF3" d="M48.083,210.683h-1.09l-3.715-4.067h-2.932v4.067h-0.829v-10.745c1.582,0,3.147,0,4.728,0
					c2.333,0,3.515,1.673,3.531,3.347c0.015,1.749-1.136,3.284-3.485,3.284L48.083,210.683z M40.346,205.832h3.807
					c1.873,0,2.702-1.06,2.717-2.563c0.015-1.259-0.844-2.563-2.625-2.563h-3.899V205.832z"/>
				<path fill="#B2DDF3" d="M48.893,206.891c0-2.271,1.719-3.914,3.853-3.914c2.133,0,4.037,1.305,3.745,4.268h-6.831
					c0.153,1.78,1.52,2.81,3.085,2.81c0.998,0,2.164-0.399,2.732-1.151l0.537,0.43c-0.737,0.967-2.057,1.458-3.27,1.458
					C50.612,210.79,48.893,209.301,48.893,206.891z M55.816,206.584c-0.015-1.873-1.243-2.916-3.07-2.916
					c-1.566,0-2.917,1.059-3.085,2.916H55.816z"/>
				<path fill="#B2DDF3" d="M65.729,203.1c0,2.533,0,5.05,0,7.583h-0.752v-1.611c-0.737,1.182-1.873,1.734-3.101,1.734
					c-2.118,0-3.853-1.597-3.853-3.915c0-2.317,1.735-3.883,3.853-3.883c1.228,0,2.471,0.567,3.101,1.75V203.1H65.729z
					 M58.776,206.891c0,1.904,1.381,3.178,3.101,3.178c4.221,0,4.221-6.34,0-6.34C60.157,203.729,58.776,204.987,58.776,206.891z"/>
				<path fill="#B2DDF3" d="M68.521,199.938v10.745h-0.752v-10.745H68.521z"/>
				<path fill="#B2DDF3" d="M71.62,200.628c0,0.799-1.213,0.799-1.213,0C70.407,199.83,71.62,199.83,71.62,200.628z M70.622,203.068
					v7.614h0.752v-7.614H70.622z"/>
				<path fill="#B2DDF3" d="M75.257,200.812v2.287h2.579v0.629h-2.579v4.621c0,1.028,0.215,1.75,1.397,1.75
					c0.369,0,0.783-0.123,1.167-0.308l0.261,0.614c-0.476,0.23-0.952,0.384-1.428,0.384c-1.612,0-2.133-0.952-2.133-2.44v-4.621
					h-1.612V203.1h1.612v-2.211L75.257,200.812z"/>
				<path fill="#B2DDF3" d="M86.215,203.1l-4.621,10.745h-0.798l1.397-3.254l-3.04-7.491h0.814l1.765,4.482l0.89,2.195l0.875-2.211
					l1.903-4.467H86.215z"/>
			</g>
		</g>
	</g>
	<g>
		<g>
			<polygon fill="#FFFFFF" points="7.875,166.297 61.875,135.171 115.875,166.297 115.875,228.549 61.875,259.676 7.875,228.549 			
				"/>
			<path fill="#0090D7" d="M61.875,266.602l-60-34.586V162.83l60-34.585l60,34.585v69.186L61.875,266.602z M13.875,225.082
				l48,27.668l48-27.668v-55.318l-48-27.667l-48,27.667V225.082z"/>
		</g>
		<g>
			<g>
				<path fill="#34495E" d="M30.297,192.268l-1.182-2.641h-6.417l-1.167,2.641h-0.89l4.82-10.745h0.906l4.82,10.745H30.297z
					 M28.792,188.859l-2.886-6.539l-2.886,6.539H28.792z"/>
				<path fill="#34495E" d="M38.061,192.268v-1.366c-0.583,1.044-1.643,1.474-2.702,1.489c-2.026,0-3.423-1.243-3.423-3.347v-4.375
					h0.752v4.359c0,1.72,1.059,2.641,2.702,2.625c1.566-0.015,2.656-1.197,2.656-2.763v-4.222h0.752v7.599H38.061z"/>
				<path fill="#34495E" d="M46.869,184.378l0.491,0.43l-0.737,0.859c0.537,0.583,0.936,1.351,0.936,2.579
					c0,1.32-0.783,2.655-2.042,3.224c1.335,0.476,2.072,1.412,2.072,2.717c0,2.041-1.596,3.023-3.607,3.023
					c-2.011,0-3.592-1.104-3.592-3.023h0.752c0,1.55,1.32,2.287,2.84,2.287c1.52,0,2.87-0.676,2.87-2.287
					c0-1.627-1.458-2.272-2.87-2.272c-2.195,0-3.562-1.642-3.562-3.668c0-2.364,1.597-3.7,3.562-3.7
					c0.767,0,1.565,0.276,2.149,0.691L46.869,184.378z M41.174,188.246c0,1.565,1.075,2.916,2.81,2.916
					c1.565,0,2.839-1.351,2.839-2.916c0-1.919-1.274-2.947-2.839-2.947C42.433,185.299,41.174,186.266,41.174,188.246z"/>
				<path fill="#34495E" d="M60.344,192.268v-4.544c0-1.458-0.982-2.486-2.425-2.486s-2.44,1.074-2.44,2.532v4.498h-0.752v-4.498
					c0-1.458-0.998-2.517-2.44-2.517s-2.425,1.059-2.425,2.517v4.498h-0.752v-7.583h0.706l0.016,1.259
					c0.522-0.998,1.489-1.412,2.471-1.412c1.151,0,2.364,0.521,2.809,1.872c0.46-1.243,1.643-1.872,2.809-1.872
					c1.857,0,3.178,1.305,3.178,3.192v4.544H60.344z"/>
				<path fill="#34495E" d="M62.78,188.476c0-2.271,1.719-3.914,3.853-3.914c2.133,0,4.037,1.305,3.745,4.268h-6.831
					c0.153,1.78,1.52,2.81,3.085,2.81c0.998,0,2.164-0.399,2.732-1.151l0.538,0.43c-0.737,0.967-2.057,1.458-3.27,1.458
					C64.5,192.375,62.78,190.886,62.78,188.476z M69.703,188.169c-0.015-1.873-1.243-2.916-3.07-2.916
					c-1.566,0-2.917,1.059-3.085,2.916H69.703z"/>
				<path fill="#34495E" d="M73.062,184.685v1.351c0.583-1.044,1.643-1.474,2.702-1.489c2.026,0,3.423,1.244,3.423,3.347v4.375
					h-0.752v-4.359c0-1.72-1.059-2.641-2.702-2.625c-1.565,0.016-2.656,1.197-2.656,2.763v4.222h-0.752v-7.583H73.062z"/>
				<path fill="#34495E" d="M82.562,182.397v2.287h2.579v0.629h-2.579v4.621c0,1.028,0.215,1.75,1.397,1.75
					c0.369,0,0.783-0.123,1.167-0.308l0.261,0.614c-0.476,0.23-0.952,0.384-1.428,0.384c-1.612,0-2.133-0.952-2.133-2.44v-4.621
					h-1.612v-0.629h1.612v-2.211L82.562,182.397z"/>
				<path fill="#34495E" d="M86.443,188.476c0-2.271,1.719-3.914,3.853-3.914c2.133,0,4.037,1.305,3.745,4.268h-6.831
					c0.153,1.78,1.52,2.81,3.085,2.81c0.998,0,2.164-0.399,2.732-1.151l0.538,0.43c-0.737,0.967-2.057,1.458-3.27,1.458
					C88.163,192.375,86.443,190.886,86.443,188.476z M93.366,188.169c-0.015-1.873-1.243-2.916-3.07-2.916
					c-1.566,0-2.917,1.059-3.085,2.916H93.366z"/>
				<path fill="#34495E" d="M103.264,181.522v10.745h-0.737v-1.673c-0.629,1.151-1.873,1.796-3.162,1.796
					c-2.118,0-3.792-1.397-3.792-3.915c0-2.502,1.688-3.914,3.807-3.914c1.305,0,2.533,0.553,3.146,1.781v-4.82H103.264z
					 M96.311,188.476c0,2.104,1.397,3.178,3.101,3.178c1.78,0,3.101-1.305,3.101-3.192c0-1.889-1.351-3.178-3.101-3.178
					C97.708,185.283,96.311,186.343,96.311,188.476z"/>
				<path fill="#34495E" d="M48.083,210.683h-1.09l-3.715-4.067h-2.932v4.067h-0.829v-10.745c1.582,0,3.147,0,4.728,0
					c2.333,0,3.515,1.673,3.531,3.347c0.015,1.749-1.136,3.284-3.485,3.284L48.083,210.683z M40.346,205.832h3.807
					c1.873,0,2.702-1.06,2.717-2.563c0.015-1.259-0.844-2.563-2.625-2.563h-3.899V205.832z"/>
				<path fill="#34495E" d="M48.893,206.891c0-2.271,1.719-3.914,3.853-3.914c2.133,0,4.037,1.305,3.745,4.268h-6.831
					c0.153,1.78,1.52,2.81,3.085,2.81c0.998,0,2.164-0.399,2.732-1.151l0.537,0.43c-0.737,0.967-2.057,1.458-3.27,1.458
					C50.612,210.79,48.893,209.301,48.893,206.891z M55.816,206.584c-0.015-1.873-1.243-2.916-3.07-2.916
					c-1.566,0-2.917,1.059-3.085,2.916H55.816z"/>
				<path fill="#34495E" d="M65.729,203.1c0,2.533,0,5.05,0,7.583h-0.752v-1.611c-0.737,1.182-1.873,1.734-3.101,1.734
					c-2.118,0-3.853-1.597-3.853-3.915c0-2.317,1.735-3.883,3.853-3.883c1.228,0,2.471,0.567,3.101,1.75V203.1H65.729z
					 M58.776,206.891c0,1.904,1.381,3.178,3.101,3.178c4.221,0,4.221-6.34,0-6.34C60.157,203.729,58.776,204.987,58.776,206.891z"/>
				<path fill="#34495E" d="M68.521,199.938v10.745h-0.752v-10.745H68.521z"/>
				<path fill="#34495E" d="M71.62,200.628c0,0.799-1.213,0.799-1.213,0C70.407,199.83,71.62,199.83,71.62,200.628z M70.622,203.068
					v7.614h0.752v-7.614H70.622z"/>
				<path fill="#34495E" d="M75.257,200.812v2.287h2.579v0.629h-2.579v4.621c0,1.028,0.215,1.75,1.397,1.75
					c0.369,0,0.783-0.123,1.167-0.308l0.261,0.614c-0.476,0.23-0.952,0.384-1.428,0.384c-1.612,0-2.133-0.952-2.133-2.44v-4.621
					h-1.612V203.1h1.612v-2.211L75.257,200.812z"/>
				<path fill="#34495E" d="M86.215,203.1l-4.621,10.745h-0.798l1.397-3.254l-3.04-7.491h0.814l1.765,4.482l0.89,2.195l0.875-2.211
					l1.903-4.467H86.215z"/>
			</g>
		</g>
	</g>
</g>
<g>
	<g>
		<g>
			<polygon fill="#B2DDF3" points="139.875,158.242 207.875,119.047 275.875,158.242 275.875,236.635 207.875,275.832 
				139.875,236.635 			"/>
		</g>
		<g>
			<g>
				<path fill="#B2DDF3" d="M200.115,172.547h4.461v0.076l-18.304,26.071l19.765,27.531v0.077h-4.922l-17.38-24.609l-17.38,24.609
					h-4.922v-0.077l19.765-27.531l-18.304-26.071v-0.076h4.538l16.304,22.994L200.115,172.547z"/>
				<path fill="#B2DDF3" d="M256.721,226.303h-5.46l-18.611-20.38h-14.688v20.38h-4.153V172.47c7.921,0,15.766,0,23.687,0
					c11.689,0,17.611,8.383,17.688,16.765c0.077,8.768-5.691,16.458-17.458,16.458L256.721,226.303z M217.961,202.001h19.072
					c9.382,0,13.535-5.307,13.612-12.843c0.077-6.307-4.23-12.844-13.151-12.844h-19.533V202.001z"/>
			</g>
			<g>
				<path fill="#B2DDF3" d="M200.115,172.547h4.461v0.076l-18.304,26.071l19.765,27.531v0.077h-4.922l-17.38-24.609l-17.38,24.609
					h-4.922v-0.077l19.765-27.531l-18.304-26.071v-0.076h4.538l16.304,22.994L200.115,172.547z"/>
				<path fill="#B2DDF3" d="M256.721,226.303h-5.46l-18.611-20.38h-14.688v20.38h-4.153V172.47c7.921,0,15.766,0,23.687,0
					c11.689,0,17.611,8.383,17.688,16.765c0.077,8.768-5.691,16.458-17.458,16.458L256.721,226.303z M217.961,202.001h19.072
					c9.382,0,13.535-5.307,13.612-12.843c0.077-6.307-4.23-12.844-13.151-12.844h-19.533V202.001z"/>
			</g>
			<g>
				<path fill="#B2DDF3" d="M200.115,172.547h4.461v0.076l-18.304,26.071l19.765,27.531v0.077h-4.922l-17.38-24.609l-17.38,24.609
					h-4.922v-0.077l19.765-27.531l-18.304-26.071v-0.076h4.538l16.304,22.994L200.115,172.547z"/>
				<path fill="#B2DDF3" d="M256.721,226.303h-5.46l-18.611-20.38h-14.688v20.38h-4.153V172.47c7.921,0,15.766,0,23.687,0
					c11.689,0,17.611,8.383,17.688,16.765c0.077,8.768-5.691,16.458-17.458,16.458L256.721,226.303z M217.961,202.001h19.072
					c9.382,0,13.535-5.307,13.612-12.843c0.077-6.307-4.23-12.844-13.151-12.844h-19.533V202.001z"/>
			</g>
		</g>
	</g>
	<g>
		<g>
			<polygon fill="#FFFFFF" points="139.875,158.242 207.875,119.047 275.875,158.242 275.875,236.635 207.875,275.832 
				139.875,236.635 			"/>
			<path fill="#0090D7" d="M207.875,282.758l-74-42.656v-85.326l74-42.654l74,42.654v85.326L207.875,282.758z M145.875,233.168
				l62,35.738l62-35.738v-71.459l-62-35.736l-62,35.736V233.168z"/>
		</g>
		<g>
			<g>
				<path fill="#34495E" d="M200.115,172.547h4.461v0.076l-18.304,26.071l19.765,27.531v0.077h-4.922l-17.38-24.609l-17.38,24.609
					h-4.922v-0.077l19.765-27.531l-18.304-26.071v-0.076h4.538l16.304,22.994L200.115,172.547z"/>
				<path fill="#34495E" d="M256.721,226.303h-5.46l-18.611-20.38h-14.688v20.38h-4.153V172.47c7.921,0,15.766,0,23.687,0
					c11.689,0,17.611,8.383,17.688,16.765c0.077,8.768-5.691,16.458-17.458,16.458L256.721,226.303z M217.961,202.001h19.072
					c9.382,0,13.535-5.307,13.612-12.843c0.077-6.307-4.23-12.844-13.151-12.844h-19.533V202.001z"/>
			</g>
		</g>
	</g>
</g>
</svg>
