<?xml version="1.0" encoding="utf-8"?>
<!-- Generator: Adobe Illustrator 16.0.0, SVG Export Plug-In . SVG Version: 6.00 Build 0)  -->
<!DOCTYPE svg PUBLIC "-//W3C//DTD SVG 1.1//EN" "http://www.w3.org/Graphics/SVG/1.1/DTD/svg11.dtd">
<svg version="1.1" id="Layer_1" xmlns="http://www.w3.org/2000/svg" xmlns:xlink="http://www.w3.org/1999/xlink" x="0px" y="0px"
	 width="1041.062px" height="146px" viewBox="0 0 1041.062 146" enable-background="new 0 0 1041.062 146" xml:space="preserve">
<rect fill="#0090D7" width="311" height="146"/>
<g>
	<path d="M264.613,63.696h-16.632V81h-11.088V22.2c9.24,0,18.479-0.084,27.72-0.084C293.341,22.116,293.425,63.696,264.613,63.696z
		 M247.981,53.532h16.632c14.196,0,14.112-20.832,0-20.832h-16.632V53.532z"/>
	<path d="M343.908,81H330.72l-17.136-19.656h-10.668V81h-11.088V22.116c9.324,0,18.648,0.084,27.972,0.084
		c13.86,0.084,21.168,9.324,21.168,19.488c0,8.064-3.696,16.212-14.868,18.48l17.808,20.076V81z M302.917,32.532v18.816H319.8
		c7.056,0,10.08-4.704,10.08-9.408c0-4.704-3.108-9.408-10.08-9.408H302.917z"/>
	<path d="M404.304,51.936c-0.169,15.204-9.492,30.408-30.156,30.408s-30.24-14.868-30.24-30.324s9.912-30.996,30.24-30.996
		C394.392,21.024,404.472,36.564,404.304,51.936z M354.828,52.188c0.252,9.66,5.46,19.992,19.32,19.992
		c13.859,0,19.067-10.416,19.235-20.076c0.169-9.912-5.376-21-19.235-21C360.288,31.104,354.576,42.276,354.828,52.188z"/>
	<path d="M462.346,73.608c-6.048,5.964-13.859,8.736-22.344,8.736c-21.84,0-31.08-15.036-31.164-30.324
		c-0.084-15.372,9.912-30.996,31.164-30.996c7.98,0,15.54,3.024,21.588,8.988l-7.392,7.14c-3.864-3.78-9.072-5.544-14.196-5.544
		c-14.195,0-20.328,10.584-20.244,20.412c0.084,9.744,5.713,19.908,20.244,19.908c5.124,0,10.92-2.1,14.784-5.964L462.346,73.608z"
		/>
	<path d="M466.461,46.476h42.84v10.332h-31.836V70.08h33.012V81h-44.016 M466.461,22.2h44.016v10.752h-44.016"/>
	<path d="M555.164,36.396c-2.017-3.36-7.561-6.552-13.944-6.552c-8.232,0-12.18,3.444-12.18,7.812c0,5.124,6.048,6.552,13.104,7.392
		c12.264,1.512,23.688,4.704,23.688,18.732c0,13.104-11.593,18.731-24.696,18.731c-12.012,0-21.252-3.695-25.62-14.448l9.24-4.788
		c2.604,6.468,9.408,9.324,16.548,9.324c6.972,0,13.523-2.436,13.523-8.82c0-5.544-5.796-7.812-13.607-8.652
		c-12.012-1.428-23.1-4.62-23.1-17.808c0-12.096,11.928-17.052,22.764-17.136c9.156,0,18.647,2.604,23.1,11.676L555.164,36.396z"/>
	<path d="M608.756,36.396c-2.017-3.36-7.561-6.552-13.944-6.552c-8.232,0-12.18,3.444-12.18,7.812c0,5.124,6.048,6.552,13.104,7.392
		c12.264,1.512,23.688,4.704,23.688,18.732c0,13.104-11.593,18.731-24.696,18.731c-12.012,0-21.252-3.695-25.62-14.448l9.24-4.788
		c2.604,6.468,9.408,9.324,16.548,9.324c6.972,0,13.523-2.436,13.523-8.82c0-5.544-5.796-7.812-13.607-8.652
		c-12.012-1.428-23.1-4.62-23.1-17.808c0-12.096,11.928-17.052,22.764-17.136c9.156,0,18.647,2.604,23.1,11.676L608.756,36.396z"/>
	<path d="M673.604,33.036c-5.124-5.04-12.265-7.56-18.9-7.56c-17.22,0-26.04,12.6-25.956,26.208c0,13.86,8.82,25.789,25.956,25.789
		c6.3,0,12.852-2.185,17.892-6.805V54.204H652.1v-3.948h24.779v22.008c-6.132,6.132-13.439,9.492-22.176,9.492
		c-19.992,0-30.324-13.944-30.324-29.988c-0.084-18.396,12.433-30.408,30.324-30.408c7.729,0,15.54,2.94,21.504,8.82L673.604,33.036
		z"/>
	<path d="M743.994,51.684c-0.084,15.456-9.912,30.324-29.652,30.324S684.69,67.056,684.69,51.516c0-15.792,9.827-30.24,29.651-30.24
		S744.078,35.808,743.994,51.684z M689.142,51.6c0.084,13.272,8.484,26.208,25.2,26.208c16.8,0,25.284-12.937,25.284-26.208
		c0-13.608-8.4-26.124-25.284-26.124S689.058,37.74,689.142,51.6z"/>
	<path d="M757.35,22.2v54.516h33.096V81h-37.632V22.2H757.35z"/>
	<path d="M846.388,50.928C846.724,65.88,837.147,81,816.568,81c-6.637,0-13.272,0-19.908,0V22.2c6.636,0,13.271,0,19.908,0
		C836.476,22.2,846.052,36.48,846.388,50.928z M801.196,26.484v50.147h15.372c17.472,0,25.535-13.104,25.283-25.704
		c-0.252-12.264-8.315-24.444-25.283-24.444H801.196z"/>
	<path d="M886.204,51.348c0,7.812-11.928,7.812-11.928,0C874.276,43.452,886.204,43.452,886.204,51.348z M886.204,75.708
		c0,7.812-11.928,7.812-11.928,0C874.276,67.812,886.204,67.812,886.204,75.708z"/>
	<path d="M954.41,22.284h4.872v0.084l-19.991,28.476l21.588,30.072V81h-5.376l-18.984-26.88L917.534,81h-5.376v-0.084l21.588-30.072
		l-19.991-28.476v-0.084h4.956L936.519,47.4L954.41,22.284z"/>
	<path d="M1014.303,81h-5.964l-20.328-22.26h-16.044V81h-4.536V22.2c8.652,0,17.22,0,25.872,0c12.768,0,19.235,9.156,19.319,18.312
		c0.084,9.576-6.216,17.976-19.067,17.976L1014.303,81z M971.967,54.456h20.832c10.248,0,14.783-5.796,14.867-14.028
		c0.085-6.888-4.619-14.028-14.363-14.028h-21.336V54.456z"/>
</g>
</svg>
