<?xml version="1.0" encoding="utf-8"?>
<!-- Generator: Adobe Illustrator 16.0.0, SVG Export Plug-In . SVG Version: 6.00 Build 0)  -->
<!DOCTYPE svg PUBLIC "-//W3C//DTD SVG 1.1//EN" "http://www.w3.org/Graphics/SVG/1.1/DTD/svg11.dtd">
<svg version="1.1" id="Layer_1" xmlns="http://www.w3.org/2000/svg" xmlns:xlink="http://www.w3.org/1999/xlink" x="0px" y="0px"
	 width="359.875px" height="392px" viewBox="0 0 359.875 392" enable-background="new 0 0 359.875 392" xml:space="preserve">
<g>
	<polygon opacity="0.3" fill="#D4D4D4" points="134.186,323 61.348,196.5 134.186,70 279.859,70 352.697,196.5 279.859,323 	"/>
	<g>
		<g>
			<polygon fill="#B2DDF3" points="225,38.373 280,6.67 335,38.373 335,101.777 280,133.48 225,101.777 			"/>
			<g>
				<g>
					<path fill="#B2DDF3" d="M266.865,53.887l-4.5,10.969h-0.906l-4.5-10.969h0.906l4.047,10l4.047-10H266.865z"/>
					<path fill="#B2DDF3" d="M268.883,54.59c0,0.812-1.234,0.812-1.234,0S268.883,53.777,268.883,54.59z M267.867,57.074v7.75h0.766
						v-7.75H267.867z"/>
					<path fill="#B2DDF3" d="M271.541,57.105l0.031,1.375c0.484-1.047,1.578-1.453,2.562-1.453c0.578-0.016,1.141,0.141,1.656,0.453
						l-0.344,0.625c-0.406-0.25-0.859-0.359-1.312-0.359c-1.438,0.016-2.547,1.172-2.547,2.578v4.5h-0.766v-7.719H271.541z"/>
					<path fill="#B2DDF3" d="M279.199,54.777v2.328h2.625v0.641h-2.625v4.703c0,1.047,0.219,1.781,1.422,1.781
						c0.375,0,0.797-0.125,1.188-0.312l0.266,0.625c-0.484,0.234-0.969,0.391-1.453,0.391c-1.641,0-2.172-0.969-2.172-2.484v-4.703
						h-1.641v-0.641h1.641v-2.25L279.199,54.777z"/>
					<path fill="#B2DDF3" d="M289.811,64.824v-1.391c-0.594,1.062-1.672,1.5-2.75,1.516c-2.062,0-3.484-1.266-3.484-3.406V57.09
						h0.766v4.438c0,1.75,1.078,2.688,2.75,2.672c1.594-0.016,2.703-1.219,2.703-2.812V57.09h0.766v7.734H289.811z"/>
					<path fill="#B2DDF3" d="M300,57.105c0,2.578,0,5.141,0,7.719h-0.766v-1.641c-0.75,1.203-1.906,1.766-3.156,1.766
						c-2.156,0-3.922-1.625-3.922-3.984s1.766-3.953,3.922-3.953c1.25,0,2.516,0.578,3.156,1.781v-1.688H300z M292.922,60.965
						c0,1.938,1.406,3.234,3.156,3.234c4.297,0,4.297-6.453,0-6.453C294.328,57.746,292.922,59.027,292.922,60.965z"/>
					<path fill="#B2DDF3" d="M302.848,53.887v10.938h-0.766V53.887H302.848z"/>
					<path fill="#B2DDF3" d="M265.592,83.58h-1.109l-3.781-4.141h-2.984v4.141h-0.844V72.643c1.609,0,3.203,0,4.812,0
						c2.375,0,3.578,1.703,3.594,3.406c0.016,1.781-1.156,3.344-3.547,3.344L265.592,83.58z M257.717,78.643h3.875
						c1.906,0,2.75-1.078,2.766-2.609c0.016-1.281-0.859-2.609-2.672-2.609h-3.969V78.643z"/>
					<path fill="#B2DDF3" d="M266.422,79.721c0-2.312,1.75-3.984,3.922-3.984s4.109,1.328,3.812,4.344h-6.953
						c0.156,1.812,1.547,2.859,3.141,2.859c1.016,0,2.203-0.406,2.781-1.172l0.547,0.438c-0.75,0.984-2.094,1.484-3.328,1.484
						C268.172,83.689,266.422,82.174,266.422,79.721z M273.469,79.408c-0.016-1.906-1.266-2.969-3.125-2.969
						c-1.594,0-2.969,1.078-3.141,2.969H273.469z"/>
					<path fill="#B2DDF3" d="M283.566,75.861c0,2.578,0,5.141,0,7.719h-0.766v-1.641c-0.75,1.203-1.906,1.766-3.156,1.766
						c-2.156,0-3.922-1.625-3.922-3.984s1.766-3.953,3.922-3.953c1.25,0,2.516,0.578,3.156,1.781v-1.688H283.566z M276.488,79.721
						c0,1.938,1.406,3.234,3.156,3.234c4.297,0,4.297-6.453,0-6.453C277.895,76.502,276.488,77.783,276.488,79.721z"/>
					<path fill="#B2DDF3" d="M286.412,72.643V83.58h-0.766V72.643H286.412z"/>
					<path fill="#B2DDF3" d="M289.568,73.346c0,0.812-1.234,0.812-1.234,0S289.568,72.533,289.568,73.346z M288.553,75.83v7.75
						h0.766v-7.75H288.553z"/>
					<path fill="#B2DDF3" d="M293.273,73.533v2.328h2.625v0.641h-2.625v4.703c0,1.047,0.219,1.781,1.422,1.781
						c0.375,0,0.797-0.125,1.188-0.312l0.266,0.625c-0.484,0.234-0.969,0.391-1.453,0.391c-1.641,0-2.172-0.969-2.172-2.484v-4.703
						h-1.641v-0.641h1.641v-2.25L293.273,73.533z"/>
					<path fill="#B2DDF3" d="M304.432,75.861l-4.703,10.938h-0.812l1.422-3.312l-3.094-7.625h0.828l1.797,4.562l0.906,2.234
						l0.891-2.25l1.938-4.547H304.432z"/>
				</g>
				<g>
					<path fill="#B2DDF3" d="M266.865,53.887l-4.5,10.969h-0.906l-4.5-10.969h0.906l4.047,10l4.047-10H266.865z"/>
					<path fill="#B2DDF3" d="M268.883,54.59c0,0.812-1.234,0.812-1.234,0S268.883,53.777,268.883,54.59z M267.867,57.074v7.75h0.766
						v-7.75H267.867z"/>
					<path fill="#B2DDF3" d="M271.541,57.105l0.031,1.375c0.484-1.047,1.578-1.453,2.562-1.453c0.578-0.016,1.141,0.141,1.656,0.453
						l-0.344,0.625c-0.406-0.25-0.859-0.359-1.312-0.359c-1.438,0.016-2.547,1.172-2.547,2.578v4.5h-0.766v-7.719H271.541z"/>
					<path fill="#B2DDF3" d="M279.199,54.777v2.328h2.625v0.641h-2.625v4.703c0,1.047,0.219,1.781,1.422,1.781
						c0.375,0,0.797-0.125,1.188-0.312l0.266,0.625c-0.484,0.234-0.969,0.391-1.453,0.391c-1.641,0-2.172-0.969-2.172-2.484v-4.703
						h-1.641v-0.641h1.641v-2.25L279.199,54.777z"/>
					<path fill="#B2DDF3" d="M289.811,64.824v-1.391c-0.594,1.062-1.672,1.5-2.75,1.516c-2.062,0-3.484-1.266-3.484-3.406V57.09
						h0.766v4.438c0,1.75,1.078,2.688,2.75,2.672c1.594-0.016,2.703-1.219,2.703-2.812V57.09h0.766v7.734H289.811z"/>
					<path fill="#B2DDF3" d="M300,57.105c0,2.578,0,5.141,0,7.719h-0.766v-1.641c-0.75,1.203-1.906,1.766-3.156,1.766
						c-2.156,0-3.922-1.625-3.922-3.984s1.766-3.953,3.922-3.953c1.25,0,2.516,0.578,3.156,1.781v-1.688H300z M292.922,60.965
						c0,1.938,1.406,3.234,3.156,3.234c4.297,0,4.297-6.453,0-6.453C294.328,57.746,292.922,59.027,292.922,60.965z"/>
					<path fill="#B2DDF3" d="M302.848,53.887v10.938h-0.766V53.887H302.848z"/>
					<path fill="#B2DDF3" d="M265.592,83.58h-1.109l-3.781-4.141h-2.984v4.141h-0.844V72.643c1.609,0,3.203,0,4.812,0
						c2.375,0,3.578,1.703,3.594,3.406c0.016,1.781-1.156,3.344-3.547,3.344L265.592,83.58z M257.717,78.643h3.875
						c1.906,0,2.75-1.078,2.766-2.609c0.016-1.281-0.859-2.609-2.672-2.609h-3.969V78.643z"/>
					<path fill="#B2DDF3" d="M266.422,79.721c0-2.312,1.75-3.984,3.922-3.984s4.109,1.328,3.812,4.344h-6.953
						c0.156,1.812,1.547,2.859,3.141,2.859c1.016,0,2.203-0.406,2.781-1.172l0.547,0.438c-0.75,0.984-2.094,1.484-3.328,1.484
						C268.172,83.689,266.422,82.174,266.422,79.721z M273.469,79.408c-0.016-1.906-1.266-2.969-3.125-2.969
						c-1.594,0-2.969,1.078-3.141,2.969H273.469z"/>
					<path fill="#B2DDF3" d="M283.566,75.861c0,2.578,0,5.141,0,7.719h-0.766v-1.641c-0.75,1.203-1.906,1.766-3.156,1.766
						c-2.156,0-3.922-1.625-3.922-3.984s1.766-3.953,3.922-3.953c1.25,0,2.516,0.578,3.156,1.781v-1.688H283.566z M276.488,79.721
						c0,1.938,1.406,3.234,3.156,3.234c4.297,0,4.297-6.453,0-6.453C277.895,76.502,276.488,77.783,276.488,79.721z"/>
					<path fill="#B2DDF3" d="M286.412,72.643V83.58h-0.766V72.643H286.412z"/>
					<path fill="#B2DDF3" d="M289.568,73.346c0,0.812-1.234,0.812-1.234,0S289.568,72.533,289.568,73.346z M288.553,75.83v7.75
						h0.766v-7.75H288.553z"/>
					<path fill="#B2DDF3" d="M293.273,73.533v2.328h2.625v0.641h-2.625v4.703c0,1.047,0.219,1.781,1.422,1.781
						c0.375,0,0.797-0.125,1.188-0.312l0.266,0.625c-0.484,0.234-0.969,0.391-1.453,0.391c-1.641,0-2.172-0.969-2.172-2.484v-4.703
						h-1.641v-0.641h1.641v-2.25L293.273,73.533z"/>
					<path fill="#B2DDF3" d="M304.432,75.861l-4.703,10.938h-0.812l1.422-3.312l-3.094-7.625h0.828l1.797,4.562l0.906,2.234
						l0.891-2.25l1.938-4.547H304.432z"/>
				</g>
				<g>
					<path fill="#B2DDF3" d="M266.865,53.887l-4.5,10.969h-0.906l-4.5-10.969h0.906l4.047,10l4.047-10H266.865z"/>
					<path fill="#B2DDF3" d="M268.883,54.59c0,0.812-1.234,0.812-1.234,0S268.883,53.777,268.883,54.59z M267.867,57.074v7.75h0.766
						v-7.75H267.867z"/>
					<path fill="#B2DDF3" d="M271.541,57.105l0.031,1.375c0.484-1.047,1.578-1.453,2.562-1.453c0.578-0.016,1.141,0.141,1.656,0.453
						l-0.344,0.625c-0.406-0.25-0.859-0.359-1.312-0.359c-1.438,0.016-2.547,1.172-2.547,2.578v4.5h-0.766v-7.719H271.541z"/>
					<path fill="#B2DDF3" d="M279.199,54.777v2.328h2.625v0.641h-2.625v4.703c0,1.047,0.219,1.781,1.422,1.781
						c0.375,0,0.797-0.125,1.188-0.312l0.266,0.625c-0.484,0.234-0.969,0.391-1.453,0.391c-1.641,0-2.172-0.969-2.172-2.484v-4.703
						h-1.641v-0.641h1.641v-2.25L279.199,54.777z"/>
					<path fill="#B2DDF3" d="M289.811,64.824v-1.391c-0.594,1.062-1.672,1.5-2.75,1.516c-2.062,0-3.484-1.266-3.484-3.406V57.09
						h0.766v4.438c0,1.75,1.078,2.688,2.75,2.672c1.594-0.016,2.703-1.219,2.703-2.812V57.09h0.766v7.734H289.811z"/>
					<path fill="#B2DDF3" d="M300,57.105c0,2.578,0,5.141,0,7.719h-0.766v-1.641c-0.75,1.203-1.906,1.766-3.156,1.766
						c-2.156,0-3.922-1.625-3.922-3.984s1.766-3.953,3.922-3.953c1.25,0,2.516,0.578,3.156,1.781v-1.688H300z M292.922,60.965
						c0,1.938,1.406,3.234,3.156,3.234c4.297,0,4.297-6.453,0-6.453C294.328,57.746,292.922,59.027,292.922,60.965z"/>
					<path fill="#B2DDF3" d="M302.848,53.887v10.938h-0.766V53.887H302.848z"/>
					<path fill="#B2DDF3" d="M265.592,83.58h-1.109l-3.781-4.141h-2.984v4.141h-0.844V72.643c1.609,0,3.203,0,4.812,0
						c2.375,0,3.578,1.703,3.594,3.406c0.016,1.781-1.156,3.344-3.547,3.344L265.592,83.58z M257.717,78.643h3.875
						c1.906,0,2.75-1.078,2.766-2.609c0.016-1.281-0.859-2.609-2.672-2.609h-3.969V78.643z"/>
					<path fill="#B2DDF3" d="M266.422,79.721c0-2.312,1.75-3.984,3.922-3.984s4.109,1.328,3.812,4.344h-6.953
						c0.156,1.812,1.547,2.859,3.141,2.859c1.016,0,2.203-0.406,2.781-1.172l0.547,0.438c-0.75,0.984-2.094,1.484-3.328,1.484
						C268.172,83.689,266.422,82.174,266.422,79.721z M273.469,79.408c-0.016-1.906-1.266-2.969-3.125-2.969
						c-1.594,0-2.969,1.078-3.141,2.969H273.469z"/>
					<path fill="#B2DDF3" d="M283.566,75.861c0,2.578,0,5.141,0,7.719h-0.766v-1.641c-0.75,1.203-1.906,1.766-3.156,1.766
						c-2.156,0-3.922-1.625-3.922-3.984s1.766-3.953,3.922-3.953c1.25,0,2.516,0.578,3.156,1.781v-1.688H283.566z M276.488,79.721
						c0,1.938,1.406,3.234,3.156,3.234c4.297,0,4.297-6.453,0-6.453C277.895,76.502,276.488,77.783,276.488,79.721z"/>
					<path fill="#B2DDF3" d="M286.412,72.643V83.58h-0.766V72.643H286.412z"/>
					<path fill="#B2DDF3" d="M289.568,73.346c0,0.812-1.234,0.812-1.234,0S289.568,72.533,289.568,73.346z M288.553,75.83v7.75
						h0.766v-7.75H288.553z"/>
					<path fill="#B2DDF3" d="M293.273,73.533v2.328h2.625v0.641h-2.625v4.703c0,1.047,0.219,1.781,1.422,1.781
						c0.375,0,0.797-0.125,1.188-0.312l0.266,0.625c-0.484,0.234-0.969,0.391-1.453,0.391c-1.641,0-2.172-0.969-2.172-2.484v-4.703
						h-1.641v-0.641h1.641v-2.25L293.273,73.533z"/>
					<path fill="#B2DDF3" d="M304.432,75.861l-4.703,10.938h-0.812l1.422-3.312l-3.094-7.625h0.828l1.797,4.562l0.906,2.234
						l0.891-2.25l1.938-4.547H304.432z"/>
				</g>
			</g>
		</g>
		<g>
			<polygon fill="#FFFFFF" stroke="#0090D7" stroke-width="12" stroke-miterlimit="10" points="225,38.373 280,6.67 335,38.373 
				335,101.777 280,133.48 225,101.777 			"/>
			<g>
				<g>
					<path fill="#34495E" d="M266.865,53.887l-4.5,10.969h-0.906l-4.5-10.969h0.906l4.047,10l4.047-10H266.865z"/>
					<path fill="#34495E" d="M268.883,54.59c0,0.812-1.234,0.812-1.234,0S268.883,53.777,268.883,54.59z M267.867,57.074v7.75h0.766
						v-7.75H267.867z"/>
					<path fill="#34495E" d="M271.541,57.105l0.031,1.375c0.484-1.047,1.578-1.453,2.562-1.453c0.578-0.016,1.141,0.141,1.656,0.453
						l-0.344,0.625c-0.406-0.25-0.859-0.359-1.312-0.359c-1.438,0.016-2.547,1.172-2.547,2.578v4.5h-0.766v-7.719H271.541z"/>
					<path fill="#34495E" d="M279.199,54.777v2.328h2.625v0.641h-2.625v4.703c0,1.047,0.219,1.781,1.422,1.781
						c0.375,0,0.797-0.125,1.188-0.312l0.266,0.625c-0.484,0.234-0.969,0.391-1.453,0.391c-1.641,0-2.172-0.969-2.172-2.484v-4.703
						h-1.641v-0.641h1.641v-2.25L279.199,54.777z"/>
					<path fill="#34495E" d="M289.811,64.824v-1.391c-0.594,1.062-1.672,1.5-2.75,1.516c-2.062,0-3.484-1.266-3.484-3.406V57.09
						h0.766v4.438c0,1.75,1.078,2.688,2.75,2.672c1.594-0.016,2.703-1.219,2.703-2.812V57.09h0.766v7.734H289.811z"/>
					<path fill="#34495E" d="M300,57.105c0,2.578,0,5.141,0,7.719h-0.766v-1.641c-0.75,1.203-1.906,1.766-3.156,1.766
						c-2.156,0-3.922-1.625-3.922-3.984s1.766-3.953,3.922-3.953c1.25,0,2.516,0.578,3.156,1.781v-1.688H300z M292.922,60.965
						c0,1.938,1.406,3.234,3.156,3.234c4.297,0,4.297-6.453,0-6.453C294.328,57.746,292.922,59.027,292.922,60.965z"/>
					<path fill="#34495E" d="M302.848,53.887v10.938h-0.766V53.887H302.848z"/>
					<path fill="#34495E" d="M265.592,83.58h-1.109l-3.781-4.141h-2.984v4.141h-0.844V72.643c1.609,0,3.203,0,4.812,0
						c2.375,0,3.578,1.703,3.594,3.406c0.016,1.781-1.156,3.344-3.547,3.344L265.592,83.58z M257.717,78.643h3.875
						c1.906,0,2.75-1.078,2.766-2.609c0.016-1.281-0.859-2.609-2.672-2.609h-3.969V78.643z"/>
					<path fill="#34495E" d="M266.422,79.721c0-2.312,1.75-3.984,3.922-3.984s4.109,1.328,3.812,4.344h-6.953
						c0.156,1.812,1.547,2.859,3.141,2.859c1.016,0,2.203-0.406,2.781-1.172l0.547,0.438c-0.75,0.984-2.094,1.484-3.328,1.484
						C268.172,83.689,266.422,82.174,266.422,79.721z M273.469,79.408c-0.016-1.906-1.266-2.969-3.125-2.969
						c-1.594,0-2.969,1.078-3.141,2.969H273.469z"/>
					<path fill="#34495E" d="M283.566,75.861c0,2.578,0,5.141,0,7.719h-0.766v-1.641c-0.75,1.203-1.906,1.766-3.156,1.766
						c-2.156,0-3.922-1.625-3.922-3.984s1.766-3.953,3.922-3.953c1.25,0,2.516,0.578,3.156,1.781v-1.688H283.566z M276.488,79.721
						c0,1.938,1.406,3.234,3.156,3.234c4.297,0,4.297-6.453,0-6.453C277.895,76.502,276.488,77.783,276.488,79.721z"/>
					<path fill="#34495E" d="M286.412,72.643V83.58h-0.766V72.643H286.412z"/>
					<path fill="#34495E" d="M289.568,73.346c0,0.812-1.234,0.812-1.234,0S289.568,72.533,289.568,73.346z M288.553,75.83v7.75
						h0.766v-7.75H288.553z"/>
					<path fill="#34495E" d="M293.273,73.533v2.328h2.625v0.641h-2.625v4.703c0,1.047,0.219,1.781,1.422,1.781
						c0.375,0,0.797-0.125,1.188-0.312l0.266,0.625c-0.484,0.234-0.969,0.391-1.453,0.391c-1.641,0-2.172-0.969-2.172-2.484v-4.703
						h-1.641v-0.641h1.641v-2.25L293.273,73.533z"/>
					<path fill="#34495E" d="M304.432,75.861l-4.703,10.938h-0.812l1.422-3.312l-3.094-7.625h0.828l1.797,4.562l0.906,2.234
						l0.891-2.25l1.938-4.547H304.432z"/>
				</g>
			</g>
		</g>
	</g>
	<g>
		<polygon fill="#FFFFFF" stroke="#858585" stroke-width="12" stroke-miterlimit="10" points="228,292.535 280.5,261.996 
			333,292.535 333,353.615 280.5,384.156 228,353.615 		"/>
		<g>
			<path fill="#34495E" d="M270.117,308.648l-4.037,6.176h-0.271l-4.066-6.176v9.367h-0.812v-10.541c0.391,0,0.572,0,0.963,0
				l4.037,6.145l3.99-6.145h0.994v10.541h-0.797V308.648z"/>
			<path fill="#34495E" d="M274.074,308.152c0,0.783-1.189,0.783-1.189,0S274.074,307.369,274.074,308.152z M273.096,310.547v7.469
				h0.738v-7.469H273.096z"/>
			<path fill="#34495E" d="M278.877,313.619l2.215-3.043h0.889v0.029l-2.666,3.555l2.875,3.826v0.029h-0.873l-2.439-3.328
				l-2.439,3.328h-0.873v-0.029l2.875-3.826l-2.664-3.555v-0.029h0.889L278.877,313.619z"/>
			<path fill="#34495E" d="M283.152,314.297c0-2.23,1.688-3.842,3.779-3.842c2.094,0,3.961,1.281,3.676,4.188h-6.703
				c0.152,1.746,1.492,2.756,3.027,2.756c0.98,0,2.125-0.391,2.682-1.129l0.527,0.422c-0.723,0.947-2.018,1.43-3.209,1.43
				C284.84,318.121,283.152,316.66,283.152,314.297z M289.945,313.994c-0.016-1.836-1.221-2.861-3.014-2.861
				c-1.535,0-2.861,1.039-3.027,2.861H289.945z"/>
			<path fill="#34495E" d="M299.656,307.475v10.541h-0.723v-1.641c-0.617,1.129-1.838,1.762-3.104,1.762
				c-2.078,0-3.719-1.371-3.719-3.84c0-2.455,1.656-3.842,3.734-3.842c1.279,0,2.484,0.543,3.088,1.748v-4.729H299.656z
				 M292.834,314.297c0,2.062,1.369,3.117,3.041,3.117c1.748,0,3.043-1.281,3.043-3.133c0-1.854-1.326-3.117-3.043-3.117
				C294.203,311.164,292.834,312.203,292.834,314.297z"/>
			<path fill="#34495E" d="M266.135,336.084h-1.07l-3.645-3.992h-2.877v3.992h-0.812v-10.543c1.551,0,3.088,0,4.639,0
				c2.289,0,3.449,1.643,3.463,3.283c0.016,1.717-1.113,3.223-3.418,3.223L266.135,336.084z M258.543,331.324h3.736
				c1.836,0,2.65-1.039,2.664-2.516c0.016-1.234-0.828-2.514-2.574-2.514h-3.826V331.324z"/>
			<path fill="#34495E" d="M266.93,332.363c0-2.229,1.688-3.84,3.779-3.84c2.094,0,3.961,1.279,3.676,4.186h-6.703
				c0.152,1.748,1.492,2.758,3.027,2.758c0.98,0,2.125-0.393,2.682-1.131l0.527,0.422c-0.723,0.949-2.018,1.432-3.209,1.432
				C268.617,336.189,266.93,334.729,266.93,332.363z M273.723,332.062c-0.016-1.838-1.221-2.861-3.014-2.861
				c-1.535,0-2.861,1.039-3.027,2.861H273.723z"/>
			<path fill="#34495E" d="M283.449,328.645c0,2.484,0,4.953,0,7.439h-0.738v-1.582c-0.723,1.16-1.838,1.701-3.043,1.701
				c-2.078,0-3.779-1.566-3.779-3.84s1.701-3.811,3.779-3.811c1.205,0,2.426,0.559,3.043,1.717v-1.625H283.449z M276.625,332.363
				c0,1.867,1.355,3.117,3.043,3.117c4.143,0,4.143-6.219,0-6.219C277.98,329.262,276.625,330.496,276.625,332.363z"/>
			<path fill="#34495E" d="M286.188,325.541v10.543h-0.738v-10.543H286.188z"/>
			<path fill="#34495E" d="M289.229,326.219c0,0.783-1.189,0.783-1.189,0S289.229,325.436,289.229,326.219z M288.25,328.613v7.471
				h0.738v-7.471H288.25z"/>
			<path fill="#34495E" d="M292.797,326.4v2.244h2.529v0.617h-2.529v4.533c0,1.008,0.211,1.717,1.369,1.717
				c0.361,0,0.77-0.121,1.145-0.301l0.256,0.602c-0.467,0.227-0.934,0.377-1.4,0.377c-1.58,0-2.092-0.934-2.092-2.395v-4.533h-1.582
				v-0.617h1.582v-2.17L292.797,326.4z"/>
			<path fill="#34495E" d="M303.547,328.645l-4.533,10.541h-0.783l1.371-3.193l-2.982-7.348h0.799l1.732,4.396l0.873,2.154
				l0.859-2.17l1.867-4.381H303.547z"/>
		</g>
	</g>
	<g>
		<polygon fill="#FFFFFF" stroke="#858585" stroke-width="12" stroke-miterlimit="10" points="7,165.949 61,134.824 115,165.949 
			115,228.201 61,259.328 7,228.201 		"/>
		<g>
			<path fill="#34495E" d="M30.078,191.92l-1.182-2.641H22.48l-1.167,2.641h-0.89l4.819-10.744h0.905l4.82,10.744H30.078z
				 M28.574,188.512l-2.886-6.539l-2.886,6.539H28.574z"/>
			<path fill="#34495E" d="M37.842,191.92v-1.365c-0.582,1.043-1.643,1.473-2.701,1.488c-2.026,0-3.423-1.242-3.423-3.346v-4.375
				h0.752v4.359c0,1.719,1.06,2.641,2.702,2.625c1.565-0.016,2.655-1.197,2.655-2.764v-4.221h0.752v7.598H37.842z"/>
			<path fill="#34495E" d="M46.65,184.031l0.492,0.43l-0.737,0.859c0.537,0.582,0.937,1.35,0.937,2.578
				c0,1.32-0.783,2.656-2.042,3.225c1.335,0.475,2.072,1.412,2.072,2.717c0,2.041-1.597,3.023-3.606,3.023
				c-2.012,0-3.593-1.105-3.593-3.023h0.753c0,1.549,1.319,2.287,2.84,2.287c1.52,0,2.869-0.676,2.869-2.287
				c0-1.627-1.457-2.273-2.869-2.273c-2.195,0-3.562-1.641-3.562-3.668c0-2.363,1.598-3.699,3.562-3.699
				c0.767,0,1.564,0.275,2.148,0.691L46.65,184.031z M40.955,187.898c0,1.566,1.075,2.916,2.811,2.916
				c1.564,0,2.839-1.35,2.839-2.916c0-1.918-1.274-2.947-2.839-2.947C42.215,184.951,40.955,185.918,40.955,187.898z"/>
			<path fill="#34495E" d="M60.126,191.92v-4.543c0-1.459-0.982-2.486-2.425-2.486c-1.443,0-2.441,1.074-2.441,2.531v4.498h-0.752
				v-4.498c0-1.457-0.998-2.516-2.44-2.516s-2.425,1.059-2.425,2.516v4.498H48.89v-7.582h0.706l0.016,1.258
				c0.521-0.998,1.488-1.412,2.471-1.412c1.152,0,2.364,0.521,2.81,1.873c0.46-1.244,1.643-1.873,2.81-1.873
				c1.857,0,3.178,1.305,3.178,3.193v4.543H60.126z"/>
			<path fill="#34495E" d="M62.562,188.129c0-2.271,1.719-3.914,3.853-3.914s4.037,1.305,3.745,4.268h-6.83
				c0.152,1.779,1.52,2.809,3.085,2.809c0.997,0,2.164-0.398,2.731-1.15l0.538,0.43c-0.737,0.967-2.058,1.457-3.27,1.457
				C64.281,192.027,62.562,190.539,62.562,188.129z M69.484,187.822c-0.015-1.873-1.242-2.916-3.069-2.916
				c-1.565,0-2.917,1.059-3.085,2.916H69.484z"/>
			<path fill="#34495E" d="M72.844,184.338v1.35c0.584-1.043,1.643-1.473,2.701-1.488c2.027,0,3.424,1.244,3.424,3.346v4.375h-0.752
				v-4.359c0-1.719-1.06-2.641-2.702-2.625c-1.565,0.016-2.655,1.197-2.655,2.764v4.221h-0.752v-7.582H72.844z"/>
			<path fill="#34495E" d="M82.344,182.051v2.287h2.578v0.629h-2.578v4.621c0,1.027,0.215,1.75,1.396,1.75
				c0.369,0,0.783-0.123,1.167-0.309l0.261,0.615c-0.477,0.23-0.951,0.383-1.428,0.383c-1.611,0-2.133-0.951-2.133-2.439v-4.621
				h-1.612v-0.629h1.612v-2.211L82.344,182.051z"/>
			<path fill="#34495E" d="M86.225,188.129c0-2.271,1.72-3.914,3.854-3.914c2.133,0,4.037,1.305,3.745,4.268h-6.831
				c0.154,1.779,1.52,2.809,3.086,2.809c0.998,0,2.164-0.398,2.732-1.15l0.537,0.43c-0.736,0.967-2.057,1.457-3.27,1.457
				C87.944,192.027,86.225,190.539,86.225,188.129z M93.148,187.822c-0.016-1.873-1.244-2.916-3.07-2.916
				c-1.566,0-2.916,1.059-3.086,2.916H93.148z"/>
			<path fill="#34495E" d="M103.046,181.176v10.744h-0.737v-1.672c-0.629,1.15-1.872,1.795-3.162,1.795
				c-2.117,0-3.791-1.396-3.791-3.914c0-2.502,1.688-3.914,3.807-3.914c1.305,0,2.533,0.553,3.146,1.781v-4.82H103.046z
				 M96.092,188.129c0,2.104,1.397,3.178,3.102,3.178c1.78,0,3.101-1.305,3.101-3.193s-1.351-3.178-3.101-3.178
				C97.489,184.936,96.092,185.996,96.092,188.129z"/>
			<path fill="#34495E" d="M47.865,210.336h-1.09l-3.715-4.068h-2.933v4.068h-0.829V199.59c1.582,0,3.146,0,4.729,0
				c2.333,0,3.515,1.674,3.53,3.348c0.015,1.748-1.136,3.283-3.485,3.283L47.865,210.336z M40.128,205.484h3.808
				c1.872,0,2.701-1.059,2.717-2.562c0.015-1.26-0.845-2.564-2.625-2.564h-3.899V205.484z"/>
			<path fill="#34495E" d="M48.675,206.543c0-2.271,1.72-3.914,3.853-3.914c2.134,0,4.037,1.305,3.746,4.268h-6.831
				c0.153,1.781,1.52,2.811,3.085,2.811c0.998,0,2.164-0.4,2.732-1.152l0.537,0.43c-0.736,0.967-2.057,1.459-3.27,1.459
				C50.395,210.443,48.675,208.953,48.675,206.543z M55.598,206.236c-0.016-1.873-1.243-2.916-3.07-2.916
				c-1.565,0-2.916,1.059-3.085,2.916H55.598z"/>
			<path fill="#34495E" d="M65.512,202.752c0,2.533,0,5.051,0,7.584h-0.753v-1.611c-0.737,1.182-1.872,1.734-3.101,1.734
				c-2.118,0-3.854-1.598-3.854-3.916c0-2.316,1.735-3.883,3.854-3.883c1.229,0,2.471,0.568,3.101,1.75v-1.658H65.512z
				 M58.558,206.543c0,1.904,1.382,3.178,3.101,3.178c4.221,0,4.221-6.34,0-6.34C59.939,203.381,58.558,204.641,58.558,206.543z"/>
			<path fill="#34495E" d="M68.303,199.59v10.746H67.55V199.59H68.303z"/>
			<path fill="#34495E" d="M71.402,200.281c0,0.799-1.213,0.799-1.213,0S71.402,199.482,71.402,200.281z M70.404,202.721v7.615
				h0.752v-7.615H70.404z"/>
			<path fill="#34495E" d="M75.039,200.465v2.287h2.578v0.629h-2.578v4.621c0,1.029,0.215,1.75,1.396,1.75
				c0.369,0,0.783-0.123,1.167-0.307l0.261,0.613c-0.477,0.23-0.951,0.385-1.428,0.385c-1.611,0-2.133-0.953-2.133-2.441v-4.621
				H72.69v-0.629h1.612v-2.211L75.039,200.465z"/>
			<path fill="#34495E" d="M85.997,202.752l-4.62,10.746h-0.799l1.396-3.254l-3.039-7.492h0.814l1.765,4.482l0.89,2.195l0.875-2.211
				l1.904-4.467H85.997z"/>
		</g>
	</g>
	<g>
		<g>
			<polygon fill="#B2DDF3" points="140,157.895 208,118.699 276,157.895 276,236.287 208,275.484 140,236.287 			"/>
			<g>
				<g>
					<path fill="#B2DDF3" d="M199.896,172.199h4.461v0.076l-18.303,26.072l19.764,27.531v0.076h-4.922l-17.38-24.609l-17.38,24.609
						h-4.922v-0.076l19.764-27.531l-18.303-26.072v-0.076h4.537l16.304,22.994L199.896,172.199z"/>
					<path fill="#B2DDF3" d="M256.502,225.955h-5.46l-18.61-20.379h-14.689v20.379h-4.152v-53.832c7.921,0,15.766,0,23.686,0
						c11.689,0,17.611,8.383,17.689,16.764c0.076,8.768-5.691,16.459-17.458,16.459L256.502,225.955z M217.742,201.654h19.072
						c9.383,0,13.535-5.307,13.612-12.844c0.077-6.307-4.229-12.844-13.151-12.844h-19.533V201.654z"/>
				</g>
				<g>
					<path fill="#B2DDF3" d="M199.896,172.199h4.461v0.076l-18.303,26.072l19.764,27.531v0.076h-4.922l-17.38-24.609l-17.38,24.609
						h-4.922v-0.076l19.764-27.531l-18.303-26.072v-0.076h4.537l16.304,22.994L199.896,172.199z"/>
					<path fill="#B2DDF3" d="M256.502,225.955h-5.46l-18.61-20.379h-14.689v20.379h-4.152v-53.832c7.921,0,15.766,0,23.686,0
						c11.689,0,17.611,8.383,17.689,16.764c0.076,8.768-5.691,16.459-17.458,16.459L256.502,225.955z M217.742,201.654h19.072
						c9.383,0,13.535-5.307,13.612-12.844c0.077-6.307-4.229-12.844-13.151-12.844h-19.533V201.654z"/>
				</g>
				<g>
					<path fill="#B2DDF3" d="M199.896,172.199h4.461v0.076l-18.303,26.072l19.764,27.531v0.076h-4.922l-17.38-24.609l-17.38,24.609
						h-4.922v-0.076l19.764-27.531l-18.303-26.072v-0.076h4.537l16.304,22.994L199.896,172.199z"/>
					<path fill="#B2DDF3" d="M256.502,225.955h-5.46l-18.61-20.379h-14.689v20.379h-4.152v-53.832c7.921,0,15.766,0,23.686,0
						c11.689,0,17.611,8.383,17.689,16.764c0.076,8.768-5.691,16.459-17.458,16.459L256.502,225.955z M217.742,201.654h19.072
						c9.383,0,13.535-5.307,13.612-12.844c0.077-6.307-4.229-12.844-13.151-12.844h-19.533V201.654z"/>
				</g>
			</g>
		</g>
		<g>
			<polygon fill="#FFFFFF" stroke="#0090D7" stroke-width="12" stroke-miterlimit="10" points="140,157.895 208,118.699 
				276,157.895 276,236.287 208,275.484 140,236.287 			"/>
			<g>
				<g>
					<path fill="#34495E" d="M199.896,172.199h4.461v0.076l-18.303,26.072l19.764,27.531v0.076h-4.922l-17.38-24.609l-17.38,24.609
						h-4.922v-0.076l19.764-27.531l-18.303-26.072v-0.076h4.537l16.304,22.994L199.896,172.199z"/>
					<path fill="#34495E" d="M256.502,225.955h-5.46l-18.61-20.379h-14.689v20.379h-4.152v-53.832c7.921,0,15.766,0,23.686,0
						c11.689,0,17.611,8.383,17.689,16.764c0.076,8.768-5.691,16.459-17.458,16.459L256.502,225.955z M217.742,201.654h19.072
						c9.383,0,13.535-5.307,13.612-12.844c0.077-6.307-4.229-12.844-13.151-12.844h-19.533V201.654z"/>
				</g>
			</g>
		</g>
	</g>
</g>
<g>
	<polyline fill="none" stroke="#0090D7" stroke-width="12" stroke-miterlimit="10" points="207.022,70.092 134.186,70.092 
		107.139,117.064 	"/>
	<g>
		<polygon fill="#0090D7" points="97.654,107.158 97.686,133.48 120.469,120.293 		"/>
	</g>
</g>
<g>
	<polyline fill="none" stroke="#0090D7" stroke-width="12" stroke-miterlimit="10" points="316.358,133.48 352.697,196.592 
		325.559,245.438 	"/>
	<g>
		<polygon fill="#0090D7" points="315.924,235.678 316.357,261.996 338.936,248.463 		"/>
	</g>
</g>
</svg>
